<?xml version="1.0" encoding="utf-8"?>
<!-- Generator: Adobe Illustrator 18.1.0, SVG Export Plug-In . SVG Version: 6.00 Build 0)  -->
<!DOCTYPE svg PUBLIC "-//W3C//DTD SVG 1.1//EN" "http://www.w3.org/Graphics/SVG/1.1/DTD/svg11.dtd">
<svg version="1.1" id="Layer_1" xmlns="http://www.w3.org/2000/svg" xmlns:xlink="http://www.w3.org/1999/xlink" x="0px" y="0px"
	 viewBox="0 172 1024 680" enable-background="new 0 172 1024 680" xml:space="preserve">
<g>
	<g>
		<path fill="#444444" d="M433.7,174c-2.2,0-5.8,0-8,0H59.9c-2.2,0-5.8,0-8,0H6.5c-2.2,0-4.5,2.2-4.5,4.4v45.4c0,2.2,0,5.8,0,8V392
			c0,2.2,0,5.8,0,8v45.4c0,2.2,2.3,3.6,4.5,3.6h45.4c2.2,0,5.8,0,8,0h365.7c2.2,0,3.3,2.2,3.3,4.4v160.2c0,2.2-1.1,3.5-3.3,3.5H59.9
			c-2.2,0-3.9-1.3-3.9-3.5v-49.4c0-2.2,1.7-4.1,3.9-4.1h307c2.2,0,4.1-1.7,4.1-3.9v-45.4c0-2.2-1.9-4.8-4.1-4.8H60.3
			c-2.2,0-5.8,0-8,0H6.5c-2.2,0-4.5,2.6-4.5,4.8v46.1c0,2.2,0,5.8,0,8v48.7c0,2.2,0,5.8,0,8V667c0,2.2,2.3,4.1,4.5,4.1h45.4
			c2.2,0,5.8,0,8,0h365.7c2.2,0,5.8,0,8,0H479c2.2,0,4-1.9,4-4.1v-45.4c0-2.2,0-5.8,0-8V453.4c0-2.2,0-5.8,0-8V400c0-2.2-1.8-4-4-4
			h-45.4c-2.2,0-5.8,0-8,0H59.9c-2.2,0-3.9-1.8-3.9-4V231.8c0-2.2,1.7-4.8,3.9-4.8h365.7c2.2,0,3.3,2.6,3.3,4.8v49.4
			c0,2.2-1.1,3.8-3.3,3.8h-307c-2.2,0-4.6,2-4.6,4.2v45.4c0,2.2,2.4,3.4,4.6,3.4h306.7c2.2,0,5.8,0,8,0H479c2.2,0,4-1.2,4-3.4v-46.1
			c0-2.2,0-5.8,0-8v-48.7c0-2.2,0-5.8,0-8v-45.4c0-2.2-1.8-4.4-4-4.4H433.7z"/>
		<path fill="#444444" d="M972.9,174c-2.2,0-5.8,0-8,0H599.2c-2.2,0-5.8,0-8,0h-45.4c-2.2,0-3.8,2.2-3.8,4.4v45.4c0,2.2,0,5.8,0,8
			v381.8c0,2.2,0,5.8,0,8V667c0,2.2,1.6,4.1,3.8,4.1h45.4c2.2,0,5.8,0,8,0h365.7c2.2,0,5.8,0,8,0h45.4c2.2,0,3.7-1.9,3.7-4.1v-45.4
			c0-2.2,0-5.8,0-8v-49.4c0-2.2,0-5.8,0-8v-45.4c0-2.2-1.5-4.8-3.7-4.8h-45.4c-2.2,0-5.8,0-8,0H711.3c-2.2,0-4.3-1-4.3-3.3V400
			c0-2.2-1.5-4-3.7-4h-45.4c-2.2,0-3.9,1.8-3.9,4v102.8c0,2.2,0,5.8,0,8v45.4c0,2.2,1.7,3.9,3.9,3.9h307c2.2,0,4.1,1.9,4.1,4.1v49.4
			c0,2.2-1.9,3.5-4.1,3.5H599.2c-2.2,0-4.2-1.3-4.2-3.5V231.8c0-2.2,2-4.8,4.2-4.8h365.7c2.2,0,4.1,2.6,4.1,4.8v49.4
			c0,2.2-1.9,3.8-4.1,3.8h-307c-2.2,0-3.9,2-3.9,4.2v45.4c0,2.2,1.7,3.4,3.9,3.4h307c2.2,0,5.8,0,8,0h45.4c2.2,0,3.7-1.2,3.7-3.4
			v-45.4c0-2.2,0-5.8,0-8v-49.4c0-2.2,0-5.8,0-8v-45.4c0-2.2-1.5-4.4-3.7-4.4L972.9,174L972.9,174z"/>
	</g>
	<g>
		<path fill="#444444" d="M8.2,827.3c1.7,8.2,5.6,14.2,14.6,14.2c7,0,12.6-3.8,12.6-11.3c0-8.2-6.9-10.3-13.5-12.9
			c-9.7-4.1-19-6.7-19-19.2c0-11.3,9.1-17.6,19.6-17.6c11.1,0,17.7,6.4,20.4,16.8l-8.2,2.4c-1.5-6.5-5-11.1-12.3-11.1
			c-5.5,0-10.9,2.8-10.9,8.8c0,6.3,3.8,8.1,9,10.4l14.2,6.3c6,3.3,9.2,8.7,9.2,15.6c0,12.7-8.8,19.9-21.1,19.9
			c-12.4,0-20.2-7.9-22.3-19.9L8.2,827.3z"/>
		<path fill="#444444" d="M100.1,789.4H81.6v-7.7h45.1v7.7h-18.1v59.1H100L100.1,789.4L100.1,789.4z"/>
		<path fill="#444444" d="M170.4,781.7H212v7.7h-33v20h27.3v7.7H179v23.7h33.1v7.7h-41.6v-66.8H170.4z"/>
		<path fill="#444444" d="M269.4,848.5h-8.6v-66.8h20.8c15.5,0,21.5,8.5,21.5,18.2c0,14.1-10,19.9-19.3,19.9h-14.4V848.5z
			 M281.2,812.1c8.5,0,12.9-3.8,12.9-11.5c0-9.1-5.9-11.1-12.9-11.1h-11.8v22.7h11.8V812.1z"/>
		<path fill="#444444" d="M343.8,781.7h8.6v27.7h26.4v-27.7h8.6v66.8h-8.6v-31.4h-26.4v31.4h-8.6V781.7z"/>
		<path fill="#444444" d="M437,781.7h41.6v7.7h-33.1v20h27.3v7.7h-27.3v23.7h33.1v7.7H437V781.7z"/>
		<path fill="#444444" d="M525.3,781.7h10.6l25.9,56.2l0.3-0.3l-0.8-17.3v-38.7h8.6v66.8h-10.6l-25.9-56.2l-0.3,0.3l0.8,17.4v38.6
			h-8.6V781.7z"/>
		<path fill="#444444" d="M756,835.6c-5.4,8.5-11.8,14-22.2,14c-19.5,0-25.6-17.9-25.6-34.5c0-26.7,14.1-34.6,24.9-34.6
			c10.4,0,16.4,5.4,21.1,14.2l-7.8,4c-2.8-5.4-6.7-10.1-13.2-10.1c-13.3,0-16,16.1-16,26.4c0,10.4,2.4,26.5,16,26.5
			c7.8,0,11.8-4.7,15.8-10.8L756,835.6z"/>
		<path fill="#444444" d="M797.4,781.7h8.6v27.7h26.4v-27.7h8.6v66.8h-8.6v-31.4H806v31.4h-8.6V781.7z"/>
		<path fill="#444444" d="M890.6,781.7h41.6v7.7h-33.1v20h27.3v7.7h-27.3v23.7h33.1v7.7h-41.6V781.7z"/>
		<path fill="#444444" d="M978.9,781.7h10.6l25.9,56.2l0.3-0.3l-0.8-17.3v-38.7h8.6v66.8h-10.6L987,792.2l-0.3,0.3l0.8,17.4v38.6
			h-8.6V781.7z"/>
	</g>
</g>
</svg>
