<svg width="128" height="128" viewBox="0 0 128 128" version="1.1" xmlns="http://www.w3.org/2000/svg" xmlns:xlink="http://www.w3.org/1999/xlink">
<title>logo</title>
<desc>Created using Figma</desc>
<g id="Canvas" transform="translate(-687 -15789)">
<g id="logo">
<g id="Group">
<g id="Vector">
<use xlink:href="#path0_fill" transform="translate(687 15789)" fill="#FF6666"/>
</g>
</g>
<g id="Vector" opacity="0.05">
<use xlink:href="#path1_fill" transform="translate(701.695 15830.5)"/>
</g>
<g id="Group">
<g id="Vector">
<use xlink:href="#path2_fill" transform="translate(701.695 15830.5)" fill="#FFFFFF"/>
</g>
<g id="Vector">
<use xlink:href="#path3_fill" transform="translate(753.616 15830.5)" fill="#FFFFFF"/>
</g>
</g>
</g>
</g>
<defs>
<path id="path0_fill" d="M 64 128C 99.3462 128 128 99.3462 128 64C 128 28.6538 99.3462 0 64 0C 28.6538 0 0 28.6538 0 64C 0 99.3462 28.6538 128 64 128Z"/>
<path id="path1_fill" d="M 113.305 22.4947C 113.305 21.859 113.293 21.2233 113.281 20.5876L 92.8886 0.195607L 91.3727 0.599044L 91.3727 -6.94934e-15L 52.5815 -6.94934e-15L 45.833 -6.94934e-15L 7.38415 -6.94934e-15L 2.39618 20.2942L 0.15893 20.2942C 0.122254 21.0277 -3.7309e-07 21.7612 -3.7309e-07 22.4947C -3.7309e-07 23.1549 0.0122254 23.8029 0.0366762 24.4508C 0.0489016 24.7931 0.684623 31.0036 0.74575 31.3215C 0.819103 31.7738 0.916905 32.2139 1.00248 32.6663C 1.93161 37.1041 3.50869 41.3219 5.53811 45.234L 5.50143 45.2829L 5.63591 45.4174C 5.64814 45.4296 5.64814 45.4541 5.66036 45.4663L 5.68481 45.4663L 46.6399 86.4214C 46.86 86.4336 47.0678 86.4336 47.2879 86.4458C 47.3001 86.4458 47.3123 86.4458 47.3245 86.4458C 47.5202 86.4458 47.7035 86.4581 47.8991 86.4581C 47.9847 86.4581 48.0581 86.4581 48.1437 86.4581C 48.2904 86.4581 48.4371 86.4581 48.5838 86.4703C 48.8038 86.4703 49.0239 86.4703 49.2439 86.4703C 49.2684 86.4703 49.2928 86.4703 49.3173 86.4703C 84.6487 86.4947 113.305 57.8384 113.305 22.4947Z"/>
<path id="path2_fill" d="M 12.7633 10.6728C 12.3843 11.7975 12.0665 12.9467 11.7975 14.1203C 11.6875 14.5849 12.0543 15.0372 12.531 15.0372L 45.7352 15.0372C 46.1509 15.0372 46.4932 14.6949 46.4932 14.2793L 46.4932 0.757976C 46.4932 0.342312 46.1509 -7.4618e-07 45.7352 -7.4618e-07L 6.05158 -7.4618e-07C 5.77039 -7.4618e-07 5.51366 0.158932 5.37918 0.40344C 4.63343 1.85826 3.96103 3.34976 3.36199 4.89016C 1.47927 9.70697 0.330086 14.8905 0.0611267 20.3064C 0.0244504 21.1255 -3.7309e-07 21.9568 -3.7309e-07 22.8004C -3.7309e-07 23.3628 0.0122256 23.9129 0.024451 24.4753C 0.0366764 24.8787 0.366762 25.1966 0.782426 25.1966L 40.7473 25.1966C 41.1629 25.1966 41.5053 25.5389 41.5053 25.9545L 41.5053 39.8671C 41.5053 40.2827 41.1629 40.625 40.7473 40.625L 9.6703 40.625C 9.37689 40.625 9.0957 40.4539 8.98567 40.1727C 8.44776 38.9257 7.95874 37.6543 7.54307 36.3461C 7.38414 35.8571 7.75091 35.3559 8.25215 35.3559L 35.2947 35.3559C 35.7104 35.3559 36.0527 35.0136 36.0527 34.5979L 36.0527 31.2115C 36.0527 30.7958 35.7104 30.4535 35.2947 30.4535L 1.47927 30.4535C 1.01471 30.4535 0.660172 30.8692 0.733524 31.3337C 0.965807 32.6907 1.25922 34.0233 1.61375 35.3437C 2.09054 37.1408 2.65291 38.9012 3.32531 40.6128C 3.92435 42.141 4.58453 43.6447 5.33028 45.0873C 5.45253 45.344 5.72149 45.4907 6.00267 45.4907L 45.7352 45.4907C 46.1509 45.4907 46.4932 45.1484 46.4932 44.7328L 46.4932 21.0644C 46.4932 20.6487 46.1509 20.3064 45.7352 20.3064L 6.28386 20.3064C 5.84374 20.3064 5.50143 19.9396 5.53811 19.4995C 5.90487 14.4993 7.12741 9.73142 9.03458 5.3425C 9.15683 5.07354 9.42579 4.89016 9.7192 4.89016L 40.7595 4.89016C 41.1752 4.89016 41.5175 5.23247 41.5175 5.64814L 41.5175 9.41356C 41.5175 9.82923 41.1752 10.1715 40.7595 10.1715L 13.4968 10.1715C 13.1545 10.1593 12.8734 10.3671 12.7633 10.6728Z"/>
<path id="path3_fill" d="M 15.4285 29.6955L 15.4285 21.0522C 15.4285 20.6365 15.0862 20.2942 14.6705 20.2942L 11.1985 20.2942C 10.7828 20.2942 10.4405 20.6365 10.4405 21.0522L 10.4405 34.5857C 10.4405 35.0013 10.7828 35.3436 11.1985 35.3436L 38.2411 35.3436C 38.7545 35.3436 39.1091 35.8449 38.9501 36.3339C 38.5223 37.642 38.0455 38.9135 37.5075 40.1605C 37.3853 40.4294 37.1163 40.6128 36.8229 40.6128L 5.74594 40.6128C 5.33028 40.6128 4.98797 40.2705 4.98797 39.8548L 4.98797 5.63591C 4.98797 5.22025 5.33028 4.87794 5.74594 4.87794L 36.7862 4.87794C 37.0797 4.87794 37.3608 5.04909 37.4709 5.33028C 38.0088 6.57727 38.4978 7.84871 38.9257 9.15683C 39.0846 9.64585 38.7179 10.1471 38.2166 10.1471L 11.1985 10.1471C 10.7828 10.1471 10.4405 10.4894 10.4405 10.9051L 10.4405 14.2915C 10.4405 14.7072 10.7828 15.0495 11.1985 15.0495L 45.0017 15.0495C 45.4663 15.0495 45.8208 14.6216 45.7475 14.1692C 45.503 12.8122 45.2096 11.4797 44.8672 10.1593C 44.3905 8.36218 43.8159 6.60172 43.1435 4.89016C 42.5444 3.36199 41.872 1.85826 41.1263 0.403437C 41.004 0.158929 40.7351 0 40.4539 0L 0.757972 0C 0.342308 0 2.98472e-06 0.342313 2.98472e-06 0.757977L 2.98472e-06 44.745C 2.98472e-06 45.1607 0.342308 45.503 0.757972 45.503L 40.4905 45.503C 40.7717 45.503 41.0285 45.344 41.1629 45.0995C 41.9087 43.6447 42.5689 42.1532 43.1679 40.625C 43.8281 38.9135 44.4027 37.153 44.8795 35.3559C 45.2218 34.0355 45.5152 32.703 45.7597 31.3459C 45.8453 30.8814 45.4907 30.4657 45.0139 30.4657L 16.1742 30.4657C 15.7586 30.4413 15.4285 30.1112 15.4285 29.6955Z"/>
</defs>
</svg>
