<?xml version="1.0" encoding="UTF-8" standalone="no"?>
<!-- Created with Inkscape (http://www.inkscape.org/) -->
<svg
   xmlns:dc="http://purl.org/dc/elements/1.1/"
   xmlns:cc="http://web.resource.org/cc/"
   xmlns:rdf="http://www.w3.org/1999/02/22-rdf-syntax-ns#"
   xmlns:svg="http://www.w3.org/2000/svg"
   xmlns="http://www.w3.org/2000/svg"
   xmlns:sodipodi="http://sodipodi.sourceforge.net/DTD/sodipodi-0.dtd"
   xmlns:inkscape="http://www.inkscape.org/namespaces/inkscape"
   version="1.0"
   width="800"
   height="139.81"
   viewBox="0 0 800 139.516"
   id="Layer_1"
   xml:space="preserve"
   sodipodi:version="0.32"
   inkscape:version="0.45.1"
   sodipodi:docname="1111111111111111.svg"
   inkscape:output_extension="org.inkscape.output.svg.inkscape"
   sodipodi:docbase="C:\Documents and Settings\Teemu Hautala\Työpöytä"><metadata
   id="metadata12"><rdf:RDF><cc:Work
       rdf:about=""><dc:format>image/svg+xml</dc:format><dc:type
         rdf:resource="http://purl.org/dc/dcmitype/StillImage" /></cc:Work></rdf:RDF></metadata><sodipodi:namedview
   inkscape:window-height="999"
   inkscape:window-width="1280"
   inkscape:pageshadow="2"
   inkscape:pageopacity="0.0"
   guidetolerance="10.0"
   gridtolerance="10.0"
   objecttolerance="10.0"
   borderopacity="1.0"
   bordercolor="#666666"
   pagecolor="#ffffff"
   id="base"
   height="139.81px"
   width="800px"
   inkscape:zoom="1.49"
   inkscape:cx="400"
   inkscape:cy="69.758003"
   inkscape:window-x="-4"
   inkscape:window-y="-4"
   inkscape:current-layer="Layer_1" /><defs
   id="defs18" />
<g
   id="g3"
   transform="matrix(1.0021446,0,0,1.0021446,0,-0.1469988)">
	
	
	<path
   d="M 716.362,55.748 L 741.296,29.129 L 741.296,29.129 C 742.741,27.176 743.459,25.805 743.459,24.635 C 743.459,22.681 741.776,21.898 736.494,21.898 L 736.494,21.898 L 730.201,21.898 L 730.201,5.095 L 798.288,5.095 L 798.288,21.898 L 789.34,21.898 L 789.34,21.898 C 779.009,21.898 777.083,23.46 762.677,41.631 L 762.677,41.631 L 723.232,84.227 L 723.232,110.217 L 723.232,110.217 C 723.232,116.857 726.597,119.196 736.207,119.196 L 736.207,119.196 L 751.098,119.196 L 751.098,135.415 L 655.738,135.415 L 655.738,119.196 L 670.634,119.196 L 670.634,119.196 C 680.238,119.196 683.605,116.857 683.605,110.217 L 683.605,110.217 L 683.605,84.227 L 637.15,32.839 L 637.15,32.839 C 629.466,23.855 630.531,21.898 609.159,21.898 L 609.159,21.898 L 609.159,5.095 L 695.403,5.095 L 695.403,21.898 L 689.26,21.898 L 689.26,21.898 C 683.013,21.898 680.369,23.072 680.369,25.414 C 680.369,27.371 682.29,28.935 683.493,30.492 L 683.493,30.492 L 706.994,56.105 L 706.994,56.105 C 709.776,59.007 713.179,59.387 716.362,55.748 L 716.362,55.748 L 716.362,55.748 L 716.362,55.748 z "
   style="fill-rule:evenodd"
   id="path9" />
	<path
   d="M 137.737,5.088 L 158.537,5.088 L 158.537,51.981 L 139.326,51.981 L 139.326,51.981 C 137.624,42.606 131.762,38.961 126.406,34.043 C 116.753,25.174 95.857,17.789 78.275,17.789 C 55.59,17.789 36.439,24.825 36.439,35.177 C 36.439,63.903 166.198,41.042 166.198,95.36 C 166.198,123.689 138.402,139.515 88.49,139.515 C 71.208,139.515 45.059,134.153 29.633,125.96 C 24.793,123.162 22.741,128.599 21.837,135.414 L 21.837,135.414 L 0.505,135.414 L 0.505,86.958 L 19.796,86.958 L 19.796,86.958 C 24.051,99.269 29.914,101.808 35.305,106.693 C 44.661,115.287 66.931,121.543 87.353,121.341 C 118.144,121.041 128.733,114.31 128.733,104.537 C 128.733,94.774 118.26,92.428 84.517,87.149 L 84.517,87.149 L 55.869,82.463 L 55.869,82.463 C 23.54,77.579 0,70.349 0,44.559 C 0,17.789 29.778,0.985 76.859,0.985 C 96.698,0.985 113.304,3.634 129.233,12.644 C 133.651,15.507 137.791,15.854 137.737,5.088 L 137.737,5.088 L 137.737,5.088 L 137.737,5.088 z "
   style="fill-rule:evenodd"
   id="path11" />
	<path
   d="M 543.723,83.593 L 544.132,31.48 L 544.132,31.48 C 544.132,24.644 540.578,22.297 530.41,22.297 L 530.41,22.297 L 518.467,22.297 L 518.467,6.082 L 594.455,6.082 L 594.455,22.297 L 584.55,22.297 L 584.55,22.297 C 574.377,22.297 570.82,24.644 570.82,31.48 L 570.82,31.48 L 570.82,136.4 L 541.071,136.174 L 444.763,44.963 L 444.763,111.195 L 444.763,111.195 C 444.763,117.842 448.326,120.382 458.485,120.382 L 458.485,120.382 L 471.702,120.382 L 471.702,136.4 L 392.795,136.4 L 392.795,120.381 L 405.867,120.381 L 405.867,120.381 C 416.034,120.381 419.592,117.842 419.592,111.194 L 419.592,111.194 L 419.592,31.479 L 419.592,31.479 C 419.592,24.643 416.034,22.296 405.867,22.296 L 405.867,22.296 L 392.795,22.296 L 392.795,6.082 L 461.028,6.082 L 543.723,83.593 L 543.723,83.593 L 543.723,83.593 z "
   style="fill-rule:evenodd"
   id="path13" />
	<path
   d="M 289.198,0 C 228.639,0 190.733,26.77 190.733,69.753 C 190.733,111.962 228.113,138.53 287.352,138.53 C 350.271,138.53 386.871,112.347 386.871,67.605 C 386.871,27.358 347.375,0 289.198,0 L 289.198,0 L 289.198,0 L 289.198,0 z M 287.822,121.534 C 254.302,121.534 235.03,102.183 235.03,68.776 C 235.03,36.148 255.139,16.803 289.494,16.803 C 322.454,16.803 341.723,36.54 341.723,70.145 C 341.724,102.969 322.176,121.534 287.822,121.534 L 287.822,121.534 L 287.822,121.534 L 287.822,121.534 z "
   style="fill-rule:evenodd"
   id="path15" />
</g>
</svg>