<?xml version="1.0" encoding="utf-8"?>
<!-- Generator: Adobe Illustrator 19.0.0, SVG Export Plug-In . SVG Version: 6.00 Build 0)  -->
<svg version="1.1" id="Layer_1" xmlns="http://www.w3.org/2000/svg" xmlns:xlink="http://www.w3.org/1999/xlink" x="0px" y="0px"
	 viewBox="0 0 1024 487" enable-background="new 0 0 1024 487" xml:space="preserve">
<g>
	<path d="M435,0c-2.2,0-5.7,0-7.9,0H68.6c-2.2,0-5.7,0-7.9,0H16.3C14.1,0,12,1.8,12,3.9v44.5c0,2.2,0,5.7,0,7.9v157
		c0,2.2,0,5.7,0,7.9v44.5c0,2.2,2.1,4.4,4.3,4.4h44.5c2.2,0,5.7,0,7.9,0h358.5c2.2,0,3.9,1.3,3.9,3.5v157c0,2.2-1.7,4.5-3.9,4.5
		H68.6c-2.2,0-3.6-2.4-3.6-4.5v-48.4c0-2.2,1.5-4.1,3.6-4.1h300.9c2.2,0,3.4-1.6,3.4-3.8v-44.5c0-2.2-1.3-4.7-3.4-4.7H68.9
		c-2.2,0-5.7,0-7.9,0H16.3c-2.2,0-4.3,2.6-4.3,4.7v45.1c0,2.2,0,5.7,0,7.9v47.8c0,2.2,0,5.7,0,7.9v44.5c0,2.2,2.1,4.2,4.3,4.2h44.5
		c2.2,0,5.7,0,7.9,0h358.5c2.2,0,5.7,0,7.9,0h44.5c2.2,0,4.5-2,4.5-4.2v-44.5c0-2.2,0-5.7,0-7.9v-157c0-2.2,0-5.7,0-7.9v-44.5
		c0-2.2-2.4-4.1-4.5-4.1H435c-2.2,0-5.7,0-7.9,0H68.6c-2.2,0-3.6-1.6-3.6-3.7v-157c0-2.2,1.5-4.3,3.6-4.3h358.5
		c2.2,0,3.9,2.1,3.9,4.3v48.4c0,2.2-1.7,4.3-3.9,4.3H126.2c-2.2,0-3.2,1.4-3.2,3.5V157c0,2.2,1,4,3.2,4h300.6c2.2,0,5.7,0,7.9,0
		h44.8c2.2,0,4.5-1.8,4.5-4v-45.1c0-2.2,0-5.7,0-7.9V56.3c0-2.2,0-5.7,0-7.9V3.9c0-2.2-2.4-3.9-4.5-3.9H435z"/>
	<path d="M963.6,0c-2.2,0-5.7,0-7.9,0H597.2c-2.2,0-5.7,0-7.9,0h-44.5c-2.2,0-3.9,1.8-3.9,3.9v44.5c0,2.2,0,5.7,0,7.9v374.2
		c0,2.2,0,5.7,0,7.9v44.5c0,2.2,1.7,4.2,3.9,4.2h44.5c2.2,0,5.7,0,7.9,0h358.5c2.2,0,5.7,0,7.9,0h44.5c2.2,0,3.9-2,3.9-4.2v-44.5
		c0-2.2,0-5.7,0-7.9v-48.4c0-2.2,0-5.7,0-7.9v-44.5c0-2.2-1.8-4.7-3.9-4.7h-44.5c-2.2,0-5.7,0-7.9,0H707.1c-2.2,0-4.1-1-4.1-3.1
		V221.1c0-2.2-1.6-4.1-3.7-4.1h-44.5c-2.2,0-3.8,2-3.8,4.1v100.8c0,2.2,0,5.7,0,7.9v44.5c0,2.2,1.6,3.8,3.8,3.8h300.9
		c2.2,0,4.3,1.9,4.3,4.1v48.4c0,2.2-2.1,4.5-4.3,4.5H597.2c-2.2,0-4.2-2.4-4.2-4.5V56.3c0-2.2,2.1-4.3,4.2-4.3h358.5
		c2.2,0,4.3,2.1,4.3,4.3v48.4c0,2.2-2.1,4.3-4.3,4.3H654.8c-2.2,0-3.8,1.4-3.8,3.5V157c0,2.2,1.6,4,3.8,4h300.9c2.2,0,5.7,0,7.9,0
		h44.5c2.2,0,3.9-1.8,3.9-4v-44.5c0-2.2,0-5.7,0-7.9V56.3c0-2.2,0-5.7,0-7.9V3.9c0-2.2-1.8-3.9-3.9-3.9H963.6z"/>
</g>
</svg>
