<?xml version="1.0" encoding="utf-8"?>
<!-- Generator: Adobe Illustrator 16.0.0, SVG Export Plug-In . SVG Version: 6.00 Build 0)  -->
<!DOCTYPE svg PUBLIC "-//W3C//DTD SVG 1.1//EN" "http://www.w3.org/Graphics/SVG/1.1/DTD/svg11.dtd">
<svg version="1.1" id="Layer_1" xmlns:svg="http://www.w3.org/2000/svg"
	 xmlns="http://www.w3.org/2000/svg" xmlns:xlink="http://www.w3.org/1999/xlink" x="0px" y="0px" width="200px" height="200px"
	 viewBox="0 -88.493 200 200" enable-background="new 0 -88.493 200 200" xml:space="preserve">
<g id="g3685" transform="matrix(0.9992427,0,0,0.99924,-3.9033418e-3,0.3028104)">
	<g>
		<defs>
			<path id="SVGID_1_" d="M151.066-18.046c0,28.303-22.948,51.247-51.255,51.247c-28.305,0-51.249-22.944-51.249-51.247
				c0-28.313,22.944-51.257,51.249-51.257C128.117-69.303,151.066-46.359,151.066-18.046z"/>
		</defs>
		<clipPath id="SVGID_2_">
			<use xlink:href="#SVGID_1_"  overflow="visible"/>
		</clipPath>
		<g id="g35" clip-path="url(#SVGID_2_)">
			<path id="path37" fill="#B2B4B6" d="M152.405-18.143c0,28.676-23.245,51.925-51.924,51.925c-28.678,0-51.924-23.25-51.924-51.925
				c0-28.684,23.246-51.932,51.924-51.932C129.16-70.074,152.405-46.827,152.405-18.143z"/>
			<path id="path39" fill="#B2B4B7" d="M152.306-18.174c0,28.593-23.177,51.772-51.771,51.772
				c-28.592,0-51.771-23.179-51.771-51.772c0-28.6,23.179-51.778,51.771-51.778C129.129-69.952,152.306-46.774,152.306-18.174z"/>
			<path id="path41" fill="#B2B4B7" d="M152.208-18.205c0,28.508-23.109,51.619-51.618,51.619
				c-28.508,0-51.618-23.112-51.618-51.619c0-28.515,23.11-51.624,51.618-51.624C129.099-69.83,152.208-46.72,152.208-18.205z"/>
			<path id="path43" fill="#B3B5B8" d="M152.111-18.236c0,28.424-23.043,51.465-51.466,51.465
				c-28.426,0-51.467-23.041-51.467-51.465c0-28.431,23.041-51.473,51.467-51.473C129.068-69.709,152.111-46.667,152.111-18.236z"/>
			<path id="path45" fill="#B4B6B8" d="M152.014-18.267c0,28.338-22.973,51.312-51.314,51.312S49.388,10.071,49.388-18.267
				c0-28.346,22.971-51.319,51.311-51.319S152.014-46.613,152.014-18.267z"/>
			<path id="path47" fill="#B5B7B9" d="M151.914-18.298c0,28.253-22.904,51.159-51.16,51.159c-28.257,0-51.159-22.905-51.159-51.159
				c0-28.261,22.902-51.166,51.159-51.166C129.01-69.464,151.914-46.559,151.914-18.298z"/>
			<path id="path49" fill="#B6B8BA" d="M151.816-18.329c0,28.169-22.837,51.005-51.007,51.005
				c-28.173,0-51.006-22.836-51.006-51.005c0-28.177,22.834-51.013,51.006-51.013C128.979-69.342,151.816-46.506,151.816-18.329z"/>
			<path id="path51" fill="#B7B9BB" d="M151.716-18.36c0,28.085-22.768,50.851-50.854,50.851c-28.087,0-50.853-22.766-50.853-50.851
				c0-28.092,22.766-50.86,50.853-50.86C128.948-69.22,151.716-46.452,151.716-18.36z"/>
			<path id="path53" fill="#B7B9BC" d="M151.619-18.391c0,28-22.698,50.699-50.701,50.699c-28.003,0-50.7-22.699-50.7-50.699
				c0-28.007,22.698-50.707,50.7-50.707C128.921-69.098,151.619-46.398,151.619-18.391z"/>
			<path id="path55" fill="#B7B9BC" d="M151.521-18.422c0,27.916-22.63,50.545-50.549,50.545S50.425,9.493,50.425-18.422
				c0-27.923,22.628-50.554,50.547-50.554S151.521-46.345,151.521-18.422z"/>
			<path id="path57" fill="#B8BABC" d="M151.485-18.449c0,27.857-22.581,50.437-50.44,50.437c-27.858,0-50.438-22.58-50.438-50.437
				c0-27.862,22.58-50.446,50.438-50.446C128.904-68.895,151.485-46.312,151.485-18.449z"/>
			<path id="path59" fill="#B9BBBD" d="M151.452-18.477c0,27.796-22.534,50.328-50.334,50.328
				c-27.797,0-50.328-22.532-50.328-50.328c0-27.803,22.531-50.337,50.328-50.337C128.918-68.813,151.452-46.279,151.452-18.477z"/>
			<path id="path61" fill="#BABCBE" d="M151.415-18.504c0,27.737-22.484,50.221-50.223,50.221S50.97,9.233,50.97-18.504
				c0-27.742,22.484-50.228,50.223-50.228S151.415-46.247,151.415-18.504z"/>
			<path id="path63" fill="#BBBDBF" d="M151.382-18.53c0,27.676-22.436,50.112-50.115,50.112c-27.68,0-50.114-22.436-50.114-50.112
				c0-27.684,22.434-50.122,50.114-50.122C128.946-68.651,151.382-46.213,151.382-18.53z"/>
			<path id="path65" fill="#BCBDC0" d="M151.346-18.557c0,27.617-22.386,50.004-50.006,50.004S51.335,9.06,51.335-18.557
				c0-27.625,22.386-50.012,50.006-50.012S151.346-46.182,151.346-18.557z"/>
			<path id="path67" fill="#BCBEC0" d="M151.313-18.584c0,27.556-22.342,49.895-49.899,49.895
				c-27.559,0-49.897-22.339-49.897-49.895c0-27.565,22.338-49.904,49.897-49.904C128.971-68.488,151.313-46.149,151.313-18.584z"/>
			<path id="path69" fill="#BDBFC1" d="M151.277-18.612c0,27.497-22.292,49.788-49.789,49.788c-27.5,0-49.791-22.291-49.791-49.788
				c0-27.504,22.29-49.796,49.791-49.796C128.984-68.408,151.277-46.116,151.277-18.612z"/>
			<path id="path71" fill="#BEC0C2" d="M151.243-18.639c0,27.438-22.244,49.68-49.682,49.68c-27.44,0-49.681-22.242-49.681-49.68
				c0-27.444,22.241-49.687,49.681-49.687C128.999-68.326,151.243-46.083,151.243-18.639z"/>
			<path id="path73" fill="#BFC1C3" d="M151.207-18.666c0,27.379-22.195,49.572-49.572,49.572
				c-27.381,0-49.574-22.193-49.574-49.572c0-27.385,22.193-49.578,49.574-49.578C129.013-68.244,151.207-46.05,151.207-18.666z"/>
			<path id="path75" fill="#C0C2C4" d="M151.174-18.693c0,27.318-22.148,49.462-49.465,49.462c-27.32,0-49.465-22.145-49.465-49.462
				c0-27.325,22.145-49.471,49.465-49.471C129.026-68.163,151.174-46.017,151.174-18.693z"/>
			<path id="path77" fill="#C1C2C4" d="M151.138-18.72c0,27.258-22.098,49.355-49.357,49.355c-27.26,0-49.356-22.097-49.356-49.355
				c0-27.265,22.096-49.363,49.356-49.363C129.04-68.083,151.138-45.985,151.138-18.72z"/>
			<path id="path79" fill="#C1C3C5" d="M151.105-18.747c0,27.198-22.05,49.247-49.248,49.247c-27.201,0-49.249-22.048-49.249-49.247
				c0-27.205,22.048-49.254,49.249-49.254C129.055-68.001,151.105-45.952,151.105-18.747z"/>
			<path id="path81" fill="#C2C4C6" d="M151.068-18.773c0,27.138-22,49.137-49.139,49.137c-27.141,0-49.141-21.999-49.141-49.137
				c0-27.146,22-49.146,49.141-49.146C129.068-67.919,151.068-45.919,151.068-18.773z"/>
			<path id="path83" fill="#C3C5C7" d="M151.035-18.801c0,27.079-21.953,49.03-49.032,49.03c-27.081,0-49.032-21.951-49.032-49.03
				c0-27.085,21.951-49.038,49.032-49.038C129.082-67.839,151.035-45.886,151.035-18.801z"/>
			<path id="path85" fill="#C4C6C8" d="M150.999-18.828c0,27.019-21.903,48.922-48.924,48.922
				c-27.019,0-48.923-21.903-48.923-48.922c0-27.026,21.903-48.929,48.923-48.929C129.096-67.758,150.999-45.854,150.999-18.828z"/>
			<path id="path87" fill="#C5C6C8" d="M150.965-18.855c0,26.96-21.854,48.813-48.814,48.813c-26.962,0-48.816-21.853-48.816-48.813
				c0-26.965,21.854-48.821,48.816-48.821C129.11-67.676,150.965-45.821,150.965-18.855z"/>
			<path id="path89" fill="#C5C7C9" d="M150.932-18.883c0,26.9-21.808,48.705-48.709,48.705c-26.9,0-48.707-21.805-48.707-48.705
				c0-26.905,21.807-48.712,48.707-48.712C129.124-67.595,150.932-45.788,150.932-18.883z"/>
			<path id="path91" fill="#C6C8CA" d="M150.895-18.909c0,26.84-21.758,48.597-48.597,48.597c-26.843,0-48.6-21.757-48.6-48.597
				c0-26.847,21.758-48.604,48.6-48.604C129.138-67.513,150.895-45.756,150.895-18.909z"/>
			<path id="path93" fill="#C7C9CB" d="M150.862-18.936c0,26.78-21.711,48.489-48.492,48.489S53.88,7.844,53.88-18.936
				c0-26.787,21.71-48.496,48.491-48.496S150.862-45.723,150.862-18.936z"/>
			<path id="path95" fill="#C8CACC" d="M150.826-18.963c0,26.721-21.663,48.381-48.382,48.381c-26.721,0-48.382-21.66-48.382-48.381
				c0-26.727,21.661-48.387,48.382-48.387C129.163-67.351,150.826-45.69,150.826-18.963z"/>
			<path id="path97" fill="#C9CBCC" d="M150.793-18.99c0,26.66-21.616,48.273-48.275,48.273c-26.662,0-48.275-21.612-48.275-48.273
				c0-26.667,21.613-48.279,48.275-48.279C129.177-67.269,150.793-45.657,150.793-18.99z"/>
			<path id="path99" fill="#CACBCD" d="M150.757-19.017c0,26.601-21.566,48.165-48.165,48.165
				c-26.603,0-48.166-21.564-48.166-48.165c0-26.607,21.563-48.17,48.166-48.17C129.191-67.188,150.757-45.625,150.757-19.017z"/>
			<path id="path101" fill="#CBCCCE" d="M150.723-19.044c0,26.541-21.519,48.056-48.058,48.056
				c-26.543,0-48.059-21.515-48.059-48.056c0-26.548,21.516-48.062,48.059-48.062C129.204-67.107,150.723-45.592,150.723-19.044z"/>
			<path id="path103" fill="#CBCDCF" d="M150.687-19.071c0,26.481-21.469,47.948-47.948,47.948c-26.482,0-47.95-21.467-47.95-47.948
				c0-26.488,21.468-47.954,47.95-47.954C129.218-67.026,150.687-45.559,150.687-19.071z"/>
			<path id="path105" fill="#CCCED0" d="M150.654-19.099c0,26.421-21.421,47.84-47.842,47.84c-26.423,0-47.842-21.419-47.842-47.84
				c0-26.428,21.419-47.845,47.842-47.845C129.233-66.944,150.654-45.527,150.654-19.099z"/>
			<path id="path107" fill="#CDCFD0" d="M150.618-19.125c0,26.361-21.372,47.73-47.731,47.73c-26.365,0-47.734-21.369-47.734-47.73
				c0-26.368,21.37-47.738,47.734-47.738C129.246-66.863,150.618-45.493,150.618-19.125z"/>
			<path id="path109" fill="#CECFD1" d="M150.585-19.152c0,26.301-21.325,47.622-47.625,47.622
				c-26.304,0-47.626-21.321-47.626-47.622c0-26.309,21.322-47.63,47.626-47.63C129.26-66.782,150.585-45.46,150.585-19.152z"/>
			<path id="path111" fill="#CFD0D2" d="M150.549-19.179c0,26.242-21.275,47.515-47.514,47.515
				c-26.244,0-47.518-21.273-47.518-47.515c0-26.249,21.274-47.521,47.518-47.521C129.274-66.701,150.549-45.428,150.549-19.179z"/>
			<path id="path113" fill="#D0D1D3" d="M150.515-19.206c0,26.182-21.227,47.407-47.408,47.407c-26.185,0-47.41-21.225-47.41-47.407
				c0-26.189,21.225-47.413,47.41-47.413C129.288-66.62,150.515-45.395,150.515-19.206z"/>
			<path id="path115" fill="#D0D2D3" d="M150.479-19.233c0,26.122-21.177,47.298-47.299,47.298
				c-26.124,0-47.301-21.175-47.301-47.298c0-26.129,21.177-47.305,47.301-47.305C129.302-66.538,150.479-45.363,150.479-19.233z"/>
			<path id="path117" fill="#D1D3D4" d="M150.445-19.26c0,26.062-21.129,47.19-47.19,47.19c-26.066,0-47.194-21.127-47.194-47.19
				c0-26.07,21.128-47.197,47.194-47.197C129.316-66.457,150.445-45.33,150.445-19.26z"/>
			<path id="path119" fill="#D2D3D5" d="M150.373-19.299c0,25.979-21.063,47.038-47.039,47.038c-25.982,0-47.04-21.059-47.04-47.038
				c0-25.985,21.059-47.044,47.04-47.044C129.31-66.343,150.373-45.284,150.373-19.299z"/>
			<path id="path121" fill="#D3D4D6" d="M150.3-19.336c0,25.894-20.992,46.886-46.886,46.886c-25.897,0-46.888-20.992-46.888-46.886
				c0-25.902,20.991-46.893,46.888-46.893C129.308-66.228,150.3-45.238,150.3-19.336z"/>
			<path id="path123" fill="#D4D5D7" d="M150.228-19.373c0,25.81-20.923,46.733-46.733,46.733
				c-25.813,0-46.737-20.923-46.737-46.733c0-25.817,20.923-46.74,46.737-46.74C129.305-66.113,150.228-45.191,150.228-19.373z"/>
			<path id="path125" fill="#D5D6D7" d="M150.157-19.412c0,25.727-20.858,46.583-46.582,46.583
				c-25.728,0-46.584-20.856-46.584-46.583c0-25.732,20.856-46.587,46.584-46.587C129.299-65.999,150.157-45.144,150.157-19.412z"/>
			<path id="path127" fill="#D5D7D8" d="M150.084-19.449c0,25.643-20.791,46.429-46.431,46.429
				c-25.643,0-46.432-20.787-46.432-46.429c0-25.65,20.788-46.436,46.432-46.436C129.293-65.886,150.084-45.099,150.084-19.449z"/>
			<path id="path129" fill="#D6D7D9" d="M150.012-19.487c0,25.558-20.722,46.276-46.277,46.276
				c-25.56,0-46.279-20.718-46.279-46.276c0-25.565,20.719-46.284,46.279-46.284C129.29-65.771,150.012-45.052,150.012-19.487z"/>
			<path id="path131" fill="#D7D8DA" d="M149.94-19.525c0,25.474-20.651,46.125-46.126,46.125S57.688,5.95,57.688-19.525
				c0-25.481,20.651-46.131,46.126-46.131S149.94-45.006,149.94-19.525z"/>
			<path id="path133" fill="#D8D9DB" d="M149.867-19.562c0,25.39-20.585,45.972-45.973,45.972
				c-25.392,0-45.974-20.582-45.974-45.972c0-25.397,20.582-45.979,45.974-45.979C129.282-65.541,149.867-44.96,149.867-19.562z"/>
			<path id="path135" fill="#D8D9DB" d="M149.795-19.6c0,25.306-20.516,45.82-45.822,45.82c-25.308,0-45.822-20.514-45.822-45.82
				c0-25.313,20.514-45.828,45.822-45.828C129.28-65.428,149.795-44.914,149.795-19.6z"/>
			<path id="path137" fill="#D9DADB" d="M149.723-19.638c0,25.223-20.446,45.668-45.668,45.668
				c-25.224,0-45.669-20.446-45.669-45.668c0-25.229,20.445-45.675,45.669-45.675C129.277-65.313,149.723-44.867,149.723-19.638z"/>
			<path id="path139" fill="#D9DBDC" d="M149.65-19.676c0,25.138-20.379,45.516-45.517,45.516
				c-25.139,0-45.517-20.377-45.517-45.516c0-25.145,20.378-45.523,45.517-45.523C129.272-65.199,149.65-44.82,149.65-19.676z"/>
			<path id="path141" fill="#DADCDD" d="M149.578-19.714c0,25.055-20.309,45.363-45.364,45.363S58.849,5.341,58.849-19.714
				c0-25.061,20.309-45.371,45.364-45.371S149.578-44.774,149.578-19.714z"/>
			<path id="path143" fill="#DBDCDE" d="M149.506-19.751c0,24.971-20.243,45.212-45.213,45.212S59.082,5.219,59.082-19.751
				c0-24.977,20.241-45.218,45.211-45.218S149.506-44.728,149.506-19.751z"/>
			<path id="path145" fill="#DCDDDE" d="M149.433-19.789c0,24.887-20.173,45.059-45.06,45.059
				c-24.888,0-45.059-20.173-45.059-45.059c0-24.892,20.172-45.067,45.059-45.067C129.26-64.856,149.433-44.681,149.433-19.789z"/>
			<path id="path147" fill="#DDDEDF" d="M149.364-19.827c0,24.803-20.11,44.908-44.911,44.908
				c-24.803,0-44.908-20.105-44.908-44.908c0-24.808,20.105-44.914,44.908-44.914C129.254-64.741,149.364-44.636,149.364-19.827z"/>
			<path id="path149" fill="#DEDFE0" d="M149.292-19.865c0,24.718-20.04,44.755-44.758,44.755c-24.72,0-44.756-20.037-44.756-44.755
				c0-24.724,20.036-44.762,44.756-44.762C129.252-64.626,149.292-44.589,149.292-19.865z"/>
			<path id="path151" fill="#DEE0E1" d="M149.219-19.902c0,24.633-19.97,44.602-44.606,44.602
				c-24.635,0-44.602-19.968-44.602-44.602c0-24.64,19.967-44.611,44.602-44.611C129.249-64.512,149.219-44.542,149.219-19.902z"/>
			<path id="path153" fill="#DFE0E2" d="M149.147-19.941c0,24.551-19.904,44.451-44.454,44.451c-24.551,0-44.451-19.9-44.451-44.451
				c0-24.556,19.9-44.458,44.451-44.458C129.243-64.399,149.147-44.496,149.147-19.941z"/>
			<path id="path155" fill="#E0E1E2" d="M149.075-19.978c0,24.467-19.834,44.298-44.302,44.298
				c-24.466,0-44.297-19.831-44.297-44.298c0-24.472,19.831-44.306,44.297-44.306C129.24-64.284,149.075-44.45,149.075-19.978z"/>
			<path id="path157" fill="#E1E2E3" d="M148.98-20.034c0,24.33-19.723,44.052-44.054,44.052c-24.33,0-44.052-19.722-44.052-44.052
				c0-24.336,19.722-44.059,44.052-44.059C129.257-64.093,148.98-44.371,148.98-20.034z"/>
			<path id="path159" fill="#E2E3E4" d="M148.885-20.091c0,24.194-19.612,43.805-43.807,43.805S61.274,4.103,61.274-20.091
				c0-24.199,19.61-43.813,43.805-43.813S148.885-44.29,148.885-20.091z"/>
			<path id="path161" fill="#E3E4E5" d="M148.791-20.148c0,24.058-19.503,43.559-43.561,43.559
				c-24.057,0-43.557-19.501-43.557-43.559c0-24.063,19.5-43.565,43.557-43.565C129.288-63.713,148.791-44.211,148.791-20.148z"/>
			<path id="path163" fill="#E3E4E5" d="M148.699-20.204c0,23.921-19.395,43.312-43.316,43.312S62.071,3.718,62.071-20.204
				c0-23.927,19.391-43.32,43.312-43.32S148.699-44.131,148.699-20.204z"/>
			<path id="path165" fill="#E4E5E6" d="M148.605-20.261c0,23.786-19.28,43.065-43.069,43.065c-23.785,0-43.066-19.28-43.066-43.065
				c0-23.79,19.281-43.072,43.066-43.072C129.324-63.333,148.605-44.051,148.605-20.261z"/>
			<path id="path167" fill="#E5E6E7" d="M148.51-20.317c0,23.65-19.172,42.821-42.822,42.821c-23.647,0-42.817-19.171-42.817-42.821
				c0-23.654,19.17-42.826,42.817-42.826C129.338-63.143,148.51-43.971,148.51-20.317z"/>
			<path id="path169" fill="#E6E7E8" d="M148.415-20.373c0,23.513-19.06,42.573-42.574,42.573
				c-23.511,0-42.572-19.061-42.572-42.573c0-23.518,19.061-42.579,42.572-42.579C129.355-62.953,148.415-43.892,148.415-20.373z"/>
			<path id="path171" fill="#E7E8E9" d="M148.321-20.43c0,23.376-18.95,42.327-42.328,42.327c-23.375,0-42.324-18.95-42.324-42.327
				c0-23.382,18.949-42.332,42.324-42.332C129.371-62.762,148.321-43.812,148.321-20.43z"/>
			<path id="path173" fill="#E7E8E9" d="M148.226-20.486c0,23.24-18.839,42.08-42.08,42.08c-23.239,0-42.079-18.84-42.079-42.08
				c0-23.246,18.839-42.086,42.079-42.086C129.388-62.572,148.226-43.732,148.226-20.486z"/>
			<path id="path175" fill="#E8E8E9" d="M148.135-20.543c0,23.104-18.73,41.834-41.835,41.834c-23.102,0-41.832-18.73-41.832-41.834
				c0-23.109,18.73-41.839,41.832-41.839C129.405-62.382,148.135-43.652,148.135-20.543z"/>
			<path id="path177" fill="#E9E9EA" d="M148.04-20.599c0,22.968-18.619,41.588-41.589,41.588
				c-22.965,0-41.583-18.621-41.583-41.588c0-22.974,18.619-41.592,41.583-41.592C129.421-62.191,148.04-43.573,148.04-20.599z"/>
			<path id="path179" fill="#E9EAEB" d="M147.946-20.656c0,22.832-18.508,41.342-41.342,41.342
				c-22.829,0-41.339-18.51-41.339-41.342c0-22.837,18.51-41.346,41.339-41.346C129.438-62.002,147.946-43.493,147.946-20.656z"/>
			<path id="path181" fill="#EAEBEC" d="M147.851-20.712c0,22.695-18.397,41.095-41.095,41.095c-22.692,0-41.091-18.4-41.091-41.095
				c0-22.7,18.399-41.099,41.091-41.099C129.454-61.811,147.851-43.412,147.851-20.712z"/>
			<path id="path183" fill="#EBECED" d="M147.756-20.768c0,22.559-18.285,40.848-40.846,40.848
				c-22.558,0-40.845-18.289-40.845-40.848c0-22.565,18.287-40.852,40.845-40.852C129.471-61.621,147.756-43.333,147.756-20.768z"/>
			<path id="path185" fill="#ECEDED" d="M147.665-20.825c0,22.423-18.177,40.602-40.603,40.602
				c-22.42,0-40.598-18.179-40.598-40.602c0-22.428,18.178-40.606,40.598-40.606C129.488-61.431,147.665-43.254,147.665-20.825z"/>
			<path id="path187" fill="#EDEDEE" d="M147.571-20.882c0,22.286-18.065,40.355-40.357,40.355
				c-22.283,0-40.352-18.069-40.352-40.355c0-22.292,18.068-40.359,40.352-40.359C129.505-61.24,147.571-43.174,147.571-20.882z"/>
			<path id="path189" fill="#EEEEEF" d="M147.301-20.975c0,22.023-17.851,39.878-39.878,39.878
				c-22.022,0-39.875-17.855-39.875-39.878c0-22.028,17.853-39.882,39.875-39.882C129.45-60.858,147.301-43.004,147.301-20.975z"/>
			<path id="path191" fill="#EEEFF0" d="M147.031-21.069c0,21.76-17.637,39.401-39.4,39.401c-21.757,0-39.398-17.641-39.398-39.401
				c0-21.766,17.641-39.405,39.398-39.405C129.394-60.474,147.031-42.834,147.031-21.069z"/>
			<path id="path193" fill="#EFF0F0" d="M146.763-21.163c0,21.496-17.425,38.924-38.924,38.924
				c-21.494,0-38.921-17.428-38.921-38.924c0-21.502,17.427-38.928,38.921-38.928C129.338-60.091,146.763-42.665,146.763-21.163z"/>
			<path id="path195" fill="#F0F1F1" d="M146.494-21.256c0,21.232-17.211,38.447-38.445,38.447
				c-21.231,0-38.446-17.215-38.446-38.447c0-21.238,17.215-38.452,38.446-38.452C129.282-59.709,146.494-42.494,146.494-21.256z"/>
			<path id="path197" fill="#F1F1F2" d="M146.227-21.349c0,20.968-16.997,37.969-37.97,37.969
				c-20.967,0-37.967-17.001-37.967-37.969c0-20.975,17-37.975,37.967-37.975C129.23-59.324,146.227-42.325,146.227-21.349z"/>
			<path id="path199" fill="#F2F2F3" d="M145.957-21.444c0,20.706-16.783,37.493-37.491,37.493
				c-20.703,0-37.492-16.788-37.492-37.493c0-20.711,16.789-37.498,37.492-37.498C129.174-58.942,145.957-42.155,145.957-21.444z"/>
			<path id="path201" fill="#F3F3F3" d="M145.687-21.537c0,20.441-16.569,37.015-37.013,37.015
				c-20.441,0-37.013-16.574-37.013-37.015c0-20.449,16.572-37.022,37.013-37.022C129.118-58.559,145.687-41.986,145.687-21.537z"/>
			<path id="path203" fill="#F3F4F4" d="M145.421-21.631c0,20.178-16.358,36.539-36.538,36.539
				c-20.176,0-36.537-16.361-36.537-36.539c0-20.185,16.361-36.545,36.537-36.545C129.063-58.176,145.421-41.816,145.421-21.631z"/>
			<path id="path205" fill="#F3F4F4" d="M145.151-21.725c0,19.915-16.144,36.061-36.06,36.061
				c-19.914,0-36.061-16.146-36.061-36.061c0-19.921,16.148-36.068,36.061-36.068C129.007-57.793,145.151-41.645,145.151-21.725z"/>
			<path id="path207" fill="#F4F5F5" d="M144.881-21.818c0,19.651-15.927,35.585-35.582,35.585
				c-19.652,0-35.585-15.933-35.585-35.585c0-19.658,15.933-35.591,35.585-35.591C128.954-57.409,144.881-41.476,144.881-21.818z"/>
			<path id="path209" fill="#F5F6F6" d="M144.614-21.912c0,19.388-15.716,35.107-35.106,35.107
				c-19.388,0-35.108-15.719-35.108-35.107c0-19.395,15.72-35.115,35.108-35.115C128.898-57.026,144.614-41.306,144.614-21.912z"/>
			<path id="path211" fill="#F6F6F7" d="M144.281-22.045c0,19.014-15.416,34.431-34.432,34.431
				c-19.014,0-34.431-15.417-34.431-34.431c0-19.022,15.417-34.44,34.431-34.44C128.865-56.485,144.281-41.067,144.281-22.045z"/>
			<path id="path213" fill="#F7F7F8" d="M143.944-22.18c0,18.643-15.112,33.757-33.756,33.757
				c-18.641,0-33.756-15.114-33.756-33.757c0-18.649,15.115-33.764,33.756-33.764C128.832-55.944,143.944-40.829,143.944-22.18z"/>
			<path id="path215" fill="#F8F8F9" d="M143.611-22.314c0,18.271-14.809,33.082-33.082,33.082
				c-18.27,0-33.083-14.812-33.083-33.082c0-18.277,14.813-33.089,33.083-33.089C128.802-55.404,143.611-40.591,143.611-22.314z"/>
			<path id="path217" fill="#F9F9FA" d="M143.277-22.448c0,17.898-14.509,32.405-32.408,32.405
				c-17.897,0-32.406-14.508-32.406-32.405c0-17.904,14.509-32.413,32.406-32.413C128.768-54.862,143.277-40.353,143.277-22.448z"/>
			<path id="path219" fill="#FAFBFB" d="M142.943-22.583c0,17.526-14.209,31.732-31.735,31.732
				c-17.523,0-31.729-14.206-31.729-31.732c0-17.531,14.206-31.738,31.729-31.738C128.734-54.321,142.943-40.114,142.943-22.583z"/>
			<path id="path221" fill="#FAFBFB" d="M142.61-22.717c0,17.153-13.906,31.056-31.061,31.056
				c-17.152,0-31.055-13.903-31.055-31.056c0-17.159,13.903-31.064,31.055-31.064C128.704-53.78,142.61-39.876,142.61-22.717z"/>
			<path id="path223" fill="#FCFCFC" d="M142.154-22.819c0,16.804-13.622,30.424-30.427,30.424
				c-16.802,0-30.422-13.621-30.422-30.424c0-16.809,13.621-30.43,30.422-30.43C128.532-53.249,142.154-39.628,142.154-22.819z"/>
			<path id="path225" fill="#FDFDFD" d="M141.698-22.92c0,16.453-13.339,29.792-29.794,29.792
				c-16.453,0-29.791-13.338-29.791-29.792c0-16.46,13.338-29.798,29.791-29.798C128.359-52.718,141.698-39.38,141.698-22.92z"/>
			<path id="path227" fill="#FDFDFD" d="M141.242-23.022c0,16.103-13.055,29.159-29.16,29.159
				c-16.104,0-29.159-13.056-29.159-29.159c0-16.111,13.055-29.165,29.159-29.165C128.187-52.187,141.242-39.133,141.242-23.022z"/>
			<path id="path229" fill="#FFFFFF" d="M140.785-23.124c0,15.753-12.77,28.528-28.527,28.528
				c-15.753,0-28.526-12.774-28.526-28.528c0-15.761,12.772-28.531,28.526-28.531C128.015-51.656,140.785-38.885,140.785-23.124z"/>
		</g>
	</g>
	<g id="g5">
		<path id="path7" d="M131.145,86.097l-6.142-6.347c-0.186-0.149-0.253-0.452-0.089-0.688c0.012-0.014,4.688-7.889,4.688-7.889
			c0.103-0.223,0.114-0.371,0.114-0.45c0-0.498-0.407-0.907-0.907-0.907h-3.428c-0.35,0-0.653,0.184-0.817,0.469l-2.97,5.129
			c-0.142,0.205-0.434,0.252-0.648,0.102c0-0.002-4.797-4.93-4.797-4.93c-0.076-0.088-0.112-0.194-0.112-0.301
			c0-0.119,0.05-0.244,0.151-0.336l0.063-0.055c2.71-1.577,5.799-3.896,5.799-7.977c0-4.695-3.371-7.846-8.381-7.846
			c-4.907,0-8.637,3.288-8.637,8.192c0,2.158,0.901,4.31,2.761,6.577l0.042,0.049c0.073,0.09,0.109,0.215,0.096,0.332
			c-0.02,0.127-0.079,0.238-0.178,0.319c-4.082,2.322-6.145,5.395-6.145,9.157c0,6.378,5.34,9.72,10.614,9.72
			c3.624,0,6.45-1.39,9.172-4.513c0.012-0.014,0.053-0.068,0.053-0.068c0.161-0.162,0.462-0.162,0.645,0.025l3.301,3.417
			c0.002,0.006,0.086,0.088,0.086,0.088c0.178,0.174,0.406,0.266,0.648,0.266h4.36c0.506,0,0.909-0.407,0.909-0.907
			C131.395,86.489,131.303,86.265,131.145,86.097L131.145,86.097z M113.751,58.806c2.063,0,3.17,1.423,3.17,3.159
			c0,2.029-1.812,3.206-3.996,4.425l-0.109,0.049c-0.174,0.096-0.398,0.055-0.527-0.086c-0.009-0.01-0.056-0.051-0.056-0.051
			c-0.947-1.044-2.066-2.69-2.066-3.89C110.167,60.392,111.619,58.806,113.751,58.806z M118.157,80.471l-0.019,0.025
			c-1.582,1.886-3.328,3.145-5.858,3.145c-3.008,0-5.358-2.164-5.358-4.918c0-2.441,1.044-3.888,4.133-5.754
			c0.22-0.131,0.453-0.1,0.61,0.047l6.441,6.751c0.12,0.111,0.173,0.223,0.173,0.348c0,0.004,0,0.01,0,0.014
			C118.28,80.25,118.246,80.356,118.157,80.471z"/>
		<path id="path9" d="M97.542,83.581c-0.001,0-0.193,0.006-0.193,0.006c-4.934,0-7.434-2.619-7.434-7.768V60.642
			c0-0.262,0.219-0.477,0.486-0.477h7.727c0.505,0,0.923-0.416,0.923-0.921v-3.372c0-0.51-0.417-0.921-0.923-0.921h-7.705
			c-0.277,0-0.507-0.219-0.507-0.5v-6.974c0.022-0.498-0.369-0.926-0.879-0.949h-0.106c-0.003,0-3.952,0.312-3.952,0.312
			c-0.492,0-0.905,0.404-0.905,0.915v6.722c0,0.264-0.216,0.475-0.482,0.475h-4.854c-0.506,0-0.92,0.407-0.92,0.915L77.81,59.26
			c0.008,0.25,0.108,0.483,0.289,0.641c0.181,0.172,0.414,0.264,0.658,0.264h4.838c0.266,0,0.483,0.209,0.483,0.477l-0.004,16.194
			c0,8.692,6.546,11.798,12.284,11.798c0,0,0.68,0.012,1.203-0.041c0.516-0.051,0.906-0.412,0.906-0.923v-3.18
			C98.466,83.99,98.053,83.581,97.542,83.581z"/>
		<path id="path11" d="M75.415,86.321c-0.313-0.88-0.4-1.857-0.426-2.279c-0.017-0.315-0.029-1.591-0.029-1.591V66.414
			c0-8.473-5.99-11.483-11.598-11.483c-4.438,0-8.492,1.159-11.095,2.897c-0.22,0.145-0.358,0.362-0.409,0.584
			c-0.049,0.237,0,0.469,0.133,0.668c0.016,0.035,2.066,2.795,2.066,2.795c0.289,0.403,0.856,0.493,1.259,0.203
			c-0.008,0.006,0.28-0.186,0.28-0.186c2.036-1.267,4.445-1.998,6.891-1.998c6.922,0,6.719,5.42,6.719,6.126
			c0,0.362-0.215,0.448-0.476,0.44c-0.002,0-1.067-0.021-1.067-0.021c-5.373-0.197-18.99,1.632-18.99,12.429
			c0,6.345,5.285,9.576,10.217,9.576c4.78,0,8.625-1.896,10.543-4.216l0.02-0.025c0.024-0.029,0.057-0.047,0.102-0.047
			c0.063,0,0.118,0.057,0.118,0.119c-0.003,0.301,0,0.973,0.065,1.556c0.044,0.526,0.113,0.915,0.2,1.2
			c0.075,0.254,0.24,0.51,0.484,0.629c0.121,0.059,0.252,0.098,0.384,0.1c0.006,0,3.836,0.002,3.836,0.002
			c0.499,0,0.905-0.397,0.905-0.882C75.544,86.726,75.415,86.321,75.415,86.321z M69.453,73.759
			c-0.783,5.534-3.509,8.735-8.544,9.56c-3.544,0.581-6.752-0.876-6.925-4.672c-0.191-4.167,4.649-7.668,13.593-7.285
			c0,0,0.659,0.041,1.098,0.092c0.393,0.045,0.634,0.164,0.786,0.401C69.602,72.074,69.628,72.514,69.453,73.759z"/>
		<path id="path13" d="M149.581,83.581c-0.006,0-0.197,0.006-0.197,0.006c-4.93,0-7.433-2.619-7.433-7.768V60.642
			c0-0.262,0.22-0.477,0.482-0.477h7.727c0.512,0,0.929-0.416,0.929-0.921v-3.372c0-0.51-0.417-0.921-0.929-0.921h-7.699
			c-0.28,0-0.509-0.219-0.509-0.5v-6.974c0.025-0.498-0.372-0.926-0.881-0.949h-0.107c-0.002,0-3.951,0.312-3.951,0.312
			c-0.489,0-0.903,0.404-0.903,0.915v6.722c0,0.264-0.217,0.475-0.487,0.475h-4.849c-0.509,0-0.918,0.407-0.918,0.915l-0.009,3.393
			c0.009,0.25,0.108,0.483,0.287,0.641c0.178,0.172,0.411,0.264,0.662,0.264h4.835c0.262,0,0.482,0.209,0.482,0.477v16.194
			c0,8.692,6.539,11.798,12.282,11.798c0,0,0.681,0.012,1.201-0.041c0.517-0.051,0.901-0.412,0.901-0.923l0.005-3.18
			C150.501,83.99,150.086,83.581,149.581,83.581z"/>
	</g>
	<path id="path21" fill="#32A5DD" d="M52.752-35.259c0-2.194,0.313-3.736,0.909-5.108c0.991-2.042,2.113-4.011,3.354-5.896
		c-0.317,0.535-0.508,1.148-0.508,1.867c0,4.77,11.675,10.964,27.61,12.992c5.398,0.689,19.692,2.639,30.759,1.727
		c22.337-1.844,27.307-9.645,27.307-14.719c0-1.387-0.754-3.412-1.505-4.589c1.013,1.343,1.969,2.737,2.854,4.178
		c1.706,2.976,1.492,4.158,1.492,4.674c0,10.358-19.277,17.119-32.178,20.643C79.754-10.454,52.752-22.768,52.752-35.259z
		 M63.311-49.776c0,4.67,6.798,12.139,26.492,12.139c11.676,0,21.102-2.26,28.219-4.628c11.406-3.79,17.053-8.424,16.851-11.875
		c-0.033-0.537-0.242-1.407-0.877-2.096c-2.532-2.265-5.291-4.288-8.236-6.022c1.947,1.136,3.047,2.454,3.047,3.922
		c0,5.146-12.566,9.86-28.982,10.281c-16.414,0.422-30.013-3.617-30.38-8.751c-0.122-1.696,1.104-3.37,3.425-4.852
		c-1.774,1.097-3.472,2.299-5.091,3.598C63.212-54.269,63.311-50.268,63.311-49.776z M106.041,10.527
		c-9.995,0.357-27.592-3.086-38.673-7.613c-8.92-3.645-17.746-10.736-18.692-17.501c0.107,1.63,0.29,3.237,0.549,4.816
		c5.469,29.825,43.036,28.12,49.509,27.403c47.255-5.241,51.324-25.418,51.944-29.403c0.101-0.831,0.184-1.665,0.245-2.508
		C150.089-8.967,142.101,9.238,106.041,10.527z M70.109,17.33c-8.481-3.507-14.348-9.335-16.706-13.592
		c2.171,4.605,5.003,8.843,8.381,12.577c11.048,10.38,28.035,11.637,35.833,11.637c33.031,0,44.826-17.359,47.493-22.004
		c0.495-0.929,0.959-1.882,1.399-2.847C141.281,13.868,114.168,35.534,70.109,17.33z M150.098-26.049
		c0-0.827-0.101-2.469-0.487-4.157c-0.276-1.141-0.595-2.263-0.946-3.373c0.621,2.086,0.521,3.544,0.521,4.106
		c0,2.543-3.16,18.09-34.211,20.916c-2.686,0.242-22.412,0.548-39.565-3.79c-11.408-2.886-22.865-8.465-25.027-16.211
		c-0.334-1.209-0.189-2.323,0.078-3.371l0,0c-0.87,3.1-1.455,6.324-1.728,9.635c0.199,8.157,7.279,17.666,20.259,21.759
		C83.811,4.13,92.912,4.28,114.466-0.52C150.437-8.539,150.098-24.293,150.098-26.049z"/>
	<path id="path23" fill="#0096D7" d="M112.845-19.49c0.873-0.239,1.774-0.494,2.699-0.762c-3.973-0.852-8.194-1.314-12.573-1.314
		c-8.307,0-16.055,1.655-22.591,4.512C89.753-15.751,100.9-16.23,112.845-19.49z M108.605-39.665
		c3.49-0.765,6.629-1.675,9.416-2.601c1.524-0.506,2.939-1.028,4.257-1.559c-3.912-0.717-7.395-1.169-9.742-1.383
		c-8.932-0.813-22.227,1.724-25.676,2.437c-1.062,0.218-5.918,1.225-11.831,3.287c1.392,0.413,2.925,0.77,4.608,1.058
		c5.358-1.504,10.9-2.355,16.163-2.355C99.284-40.781,103.739-40.411,108.605-39.665z M109.628-8.441
		c-3.259-0.017-7.691-0.151-12.686-0.548C88.082-7.952,80.557-4.001,76.274,1.48c1.418,0.328,2.81,0.603,4.193,0.828
		c4.517-4.96,12.153-8.219,20.815-8.219c6.32,0,12.095,1.738,16.51,4.602c1.721-0.433,3.35-0.884,4.89-1.351
		C119.161-5.361,114.675-7.385,109.628-8.441z M138.698-30.308c2.58-1.908,4.563-4.021,5.577-6.345
		c-1.243-0.769-2.648-1.482-4.162-2.14c-1.507,1.928-3.971,3.841-7.822,5.443C134.554-32.425,136.709-31.412,138.698-30.308z
		 M127.35-24.278c2.713-1.102,5.341-2.328,7.702-3.677c-2.453-1.308-5.306-2.497-8.623-3.506c-3.204,0.792-7.021,1.411-11.555,1.785
		c-1.349,0.111-2.742,0.179-4.165,0.214c3.169,0.606,6.2,1.418,9.077,2.369C122.564-26.176,125.072-25.235,127.35-24.278z
		 M133.401-12.651c-2.283,0.926-4.894,1.758-7.872,2.447c2.163,1.307,4.11,2.786,5.794,4.407c2.428-1.051,4.541-2.141,6.382-3.245
		C136.406-10.326,134.968-11.53,133.401-12.651z M66.426-35.923c-4.007,1.963-7.932,4.402-11.079,7.384
		c0.479,0.612,1.021,1.214,1.626,1.8c3.443-3.044,7.781-5.764,12.586-7.983C68.457-35.106,67.41-35.508,66.426-35.923z
		 M79.19-11.472c-1.269-0.27-2.533-0.561-3.78-0.876c-0.795-0.203-1.59-0.417-2.383-0.643c-4.156,2.872-7.45,6.346-9.591,10.21
		c1.313,0.659,2.711,1.257,4.19,1.783c1.242-2.202,2.887-4.246,4.921-6.037C74.462-8.722,76.702-10.21,79.19-11.472z M64.838,9.541
		c0-2.447,0.424-4.866,1.25-7.174c-1.382-0.617-2.751-1.31-4.079-2.069c-0.884,2.35-1.356,4.813-1.356,7.355
		c0,0.5,0.022,0.998,0.062,1.49c1.36,1.023,2.796,1.928,4.275,2.734C64.891,11.107,64.838,10.327,64.838,9.541z M92.695-30.376
		c-3.62-0.378-6.66-0.781-8.579-1.028c-1.246-0.158-2.464-0.342-3.654-0.548c-6.896,2.186-12.945,5.475-17.674,9.414
		c0.963,0.531,1.984,1.037,3.063,1.514C72.73-26.026,82.127-29.441,92.695-30.376z M78.308,20.33
		c-1.412-0.451-2.846-0.94-4.298-1.477c1.162,2.486,2.942,4.758,5.204,6.729c1.883,0.52,3.751,0.931,5.554,1.254
		C82.024,25.055,79.805,22.838,78.308,20.33z M148.885-32.861c-0.053-0.175-0.108-0.347-0.161-0.521
		c0.039,0.141,0.075,0.276,0.106,0.409C148.849-32.935,148.869-32.898,148.885-32.861z M55.525-8.358
		c1.27-3.275,3.35-6.329,6.085-9.061c-0.915-0.475-1.796-0.971-2.636-1.489c-2.404,2.633-4.254,5.461-5.441,8.378
		C54.14-9.787,54.804-9.061,55.525-8.358z M140.708-16.602c1.215,1.009,2.244,2.013,3.114,3.003
		c1.263-1.187,2.272-2.352,3.076-3.465c-0.601-1.03-1.31-2.076-2.152-3.119C143.669-18.99,142.343-17.777,140.708-16.602z
		 M61.2,12.222c0.443,1.86,1.144,3.665,2.058,5.394c1.823,1.515,3.774,2.814,5.801,3.926c-1.475-1.98-2.605-4.107-3.323-6.34
		C64.085,14.272,62.571,13.267,61.2,12.222z M120.88,24.445c2.408-0.812,4.602-1.735,6.598-2.722
		c0.768-1.079,1.41-2.211,1.914-3.384c-1.668,0.832-3.448,1.613-5.339,2.314C123.199,22.018,122.131,23.289,120.88,24.445z
		 M125.462,7.689c0.464,1.229,0.764,2.513,0.882,3.833c1.495-0.562,2.897-1.147,4.218-1.745c-0.17-1.186-0.476-2.341-0.901-3.458
		C128.339,6.807,126.944,7.266,125.462,7.689z M134.585-52.565c-2.352-0.816-5.152-1.422-8.278-1.83
		c-3.657,2.797-11.035,5.065-20.222,5.959c5.778,0.577,12.817,1.574,19.529,3.141C130.692-47.746,133.689-50.314,134.585-52.565z
		 M69.888-55.391c-2.3,0.968-4.371,1.96-6.136,2.947c-0.311,0.947-0.404,1.717-0.43,2.193c2.266-1.166,4.967-2.362,7.981-3.52
		C70.681-54.29,70.204-54.831,69.888-55.391z M52.156-24.929c-1.327,1.835-2.35,3.836-2.958,6.014
		c0.161,0.665,0.363,1.334,0.611,2.002c0.767-2.177,2.044-4.299,3.731-6.322C53.027-23.783,52.564-24.348,52.156-24.929z
		 M54.087-0.792c0-1.465,0.158-2.906,0.461-4.316c-0.742-0.689-1.433-1.401-2.062-2.121c-0.471,2.071-0.6,4.168-0.348,6.25
		c0.672,1.324,1.427,2.556,2.252,3.707C54.191,1.566,54.087,0.39,54.087-0.792z M66.999-43.458
		c5.404-2.457,12.037-4.414,19.862-5.226c-2.68-0.348-5.148-0.826-7.333-1.408c-5.132,1.418-9.949,3.12-14.147,5.077
		C65.837-44.49,66.373-43.969,66.999-43.458z M144.069,0.668c-0.275-0.767-0.589-1.524-0.951-2.266
		c-1.646,1.502-3.611,2.984-5.953,4.371c0.359,0.943,0.648,1.91,0.856,2.894C140.491,4.013,142.473,2.322,144.069,0.668z
		 M149.595-10.196c-0.487,1.043-1.115,2.183-1.918,3.376c0.211,0.748,0.353,1.468,0.442,2.163c0.835-1.449,1.393-2.775,1.777-3.909
		C149.819-9.075,149.72-9.62,149.595-10.196z M149.634-30.102c-0.117-0.487-0.239-0.972-0.373-1.454
		c-0.069-0.17-0.152-0.338-0.238-0.503c0.217,1.275,0.164,2.173,0.164,2.586c0,0.833-0.34,3.061-1.885,5.779
		c0.709,0.822,1.329,1.673,1.846,2.556c0.981-2.53,0.951-4.374,0.951-4.91C150.098-26.86,150-28.45,149.634-30.102z M76.161,12.767
		c0-2.257,0.538-4.422,1.525-6.424c-1.27-0.347-2.517-0.712-3.727-1.087c-0.97,2.119-1.497,4.384-1.497,6.749
		c0,1.062,0.108,2.108,0.315,3.125c1.267,0.398,2.538,0.742,3.802,1.037C76.304,15.067,76.161,13.929,76.161,12.767z M138.15,12.764
		c-0.131,0.737-0.306,1.463-0.52,2.177c4.185-3.715,6.465-7.228,7.466-8.974c0.039-0.064,0.072-0.131,0.106-0.195
		c-0.011-0.122-0.024-0.247-0.038-0.372C143.602,7.7,141.252,10.271,138.15,12.764z M128.737-58.963
		c2.046,0.835,3.915,1.867,5.562,3.125c-0.081-0.128-0.173-0.254-0.284-0.374c-1.649-1.482-3.392-2.859-5.228-4.116
		c-0.464-0.289-0.951-0.56-1.462-0.814C128.084-60.464,128.568-59.736,128.737-58.963z M56.982-46.205
		c-0.143,0.22-0.289,0.44-0.431,0.661c0.075-0.093,0.158-0.189,0.243-0.285C56.85-45.958,56.913-46.083,56.982-46.205z
		 M140.949-40.03c1.371,0.716,2.619,1.484,3.718,2.305c0.237-0.78,0.356-1.582,0.356-2.408c0-0.507,0.209-1.668-1.432-4.565
		c-0.882-1.447-1.83-2.847-2.847-4.196c-0.015-0.014-0.025-0.028-0.039-0.042c0.742,1.184,1.477,3.172,1.477,4.541
		C142.182-43.073,141.842-41.568,140.949-40.03z M59.892-39.533c-0.643-0.486-1.202-0.974-1.669-1.464
		c-2.213,1.527-4.061,3.16-5.453,4.891c-0.012,0.272-0.018,0.553-0.018,0.846c0,0.548,0.055,1.096,0.158,1.639
		C54.618-35.526,56.948-37.572,59.892-39.533z M53.428,3.78c1.191,2.527,2.583,4.941,4.153,7.222
		c-0.849-1.364-1.554-2.781-2.103-4.244C54.634,5.718,53.948,4.711,53.428,3.78z M50.435-31.825c-0.32,1.15-0.601,2.313-0.843,3.496
		c0.131-0.453,0.332-0.949,0.602-1.479C50.17-30.51,50.276-31.18,50.435-31.825z M49.009-13.093
		c-0.151-0.498-0.263-0.993-0.332-1.485c0.084,1.251,0.211,2.494,0.383,3.721C48.976-11.606,48.962-12.351,49.009-13.093z"/>
</g>
</svg>
