<?xml version="1.0" encoding="utf-8"?>
<!-- Generator: Adobe Illustrator 16.0.0, SVG Export Plug-In . SVG Version: 6.00 Build 0)  -->
<!DOCTYPE svg PUBLIC "-//W3C//DTD SVG 1.1//EN" "http://www.w3.org/Graphics/SVG/1.1/DTD/svg11.dtd">
<svg version="1.1" id="Layer_1" xmlns="http://www.w3.org/2000/svg" xmlns:xlink="http://www.w3.org/1999/xlink" x="0px" y="0px"
	 width="252px" height="252px" viewBox="0 0 252 252" enable-background="new 0 0 252 252" xml:space="preserve">
<g>
	<g>
		<g>
			<path fill="#991D20" d="M95.2,134.6l-8.6,0c-1,0-1.9,0-2.1-1.2c-0.3-1.5,1.1-1.8,1.1-1.8c-0.1,0.1-0.5,0.7-0.2,1.4
				c0.2,0.6,0.8,0.5,1.6,0.5l9.6,0C96.6,134.5,95.2,134.6,95.2,134.6z"/>
			<path fill="#991D20" d="M92.9,172h-4.2c-0.7,0-1.4-0.1-1.6-0.9c-0.3-0.9,0.7-1.2,0.7-1.2c-0.1,0.1-0.2,0.4,0,0.8
				c0.2,0.4,0.6,0.4,1.2,0.4l4.9,0C93.9,172,92.9,172,92.9,172z"/>
			<path fill="#991D20" d="M98.4,129.7c1.4-1.3,2.7-3.5,1.8-6.7l0-0.1c0,0-1.4-3.5-0.2-7.4l0.4-1.3l-1.3,0.2c-0.2,0-1.8,0.3-3.7,2.2
				c-1.6-3.2-4.6-5.6-7.8-7.2c1.2,3.7,1.3,5.1,0.4,6.6c-2.2-2-4.8-2.4-4.9-2.4l-1.5-0.2l0.6,1.4c1,2.3,0.2,3.8-0.7,5.6
				c-0.7,1.3-1.4,2.9-1.4,4.7c0,2.5,1.2,4,2.4,4.9c-0.8,0.7-1.4,1.8-1.4,3.1c0,1.5,0.8,2.9,2,3.6c0.4,1.2,1.2,2.2,2.3,2.8l1.4,27.8
				c-1.7,0.4-2.9,1.9-2.9,3.6c0,1.9,1.4,3.5,3.3,3.7l0.6,11.1c0,1.6,1.3,3,3,3c1.7,0,3-1.3,3-3l0.5-11.2c1.9-0.2,3.3-1.8,3.3-3.7
				c0-1.8-1.3-3.3-3-3.6l1.2-27.7c1.2-0.6,2.1-1.6,2.5-2.9c1.2-0.7,2-2.1,2-3.5C100.2,131.8,99.5,130.5,98.4,129.7z M97.9,116.8
				c-0.6,3.5,0.5,6.4,0.6,6.8c1,3.6-1.7,5.2-2.3,5.5l-0.1,0l-2.7,0c1.7-2.2,3-5.1,3-7.7c0-0.8-0.1-1.5-0.2-2.2l-0.2-0.8
				C96.8,117.7,97.4,117.1,97.9,116.8z M90.1,112.8c2.1,1.7,4.7,4.9,4.7,8.6c0,3.3-2.9,7.2-3.5,7.7c-0.6-0.7-1.2-2.1-1.2-3.7
				c0-2.8,1.3-4.4,1.3-4.4s-2,1.3-2.3,3.8c-0.1,1.2,0.1,2.6,1,4.3h-1.2c-0.3-0.5-2.7-3.4-0.7-6.7c0.3-0.5,1.8-2.7,2-3.1
				c0.2-0.5,0.2-1,0.2-1c-0.2,0.4-0.7,0.9-0.7,0.9c-0.4,0.5-1.8,1.9-2.3,2.5c-2.8,3.4-0.1,7.1,0.1,7.5c-0.1,0-1.1,0-1.1,0
				c-1.2-1.4-1.7-2.8-1.5-4.9C85.1,119.6,90.7,119,90.1,112.8z M81.8,125.2c0-1.5,0.6-2.7,1.2-4c0.8-1.6,1.6-3.3,1.2-5.5
				c0.8,0.3,1.8,0.9,2.7,1.7c-0.6,0.7-1.2,1.3-1.5,1.8c-2.4,2.8-3.3,6.2-0.7,9.9h-0.4C84.3,129.2,81.8,128.3,81.8,125.2z
				 M92.1,185.7c0,0.7-0.5,1.3-1.3,1.3c-0.7,0-1.3-0.6-1.3-1.3l-0.5-11.1h0.7l0.4,10.7c0,0.8,0.4,1,0.4,1l-0.2-11.7l2.4,0
				L92.1,185.7z M95.9,170.9c0,1.1-0.9,2-2,2l-6.3,0c-1.1,0-2-0.9-2-2c0-1.1,0.9-2,2-2l6.3,0C95,168.9,95.9,169.8,95.9,170.9z
				 M87.1,140c0,0,0.4,0.1,1.1,0.1l1,27.1l-0.8,0L87.1,140z M89.5,140.2c1.3,0.1,2.9,0,4.6-0.2l-1.2,27.2l-2.9,0L89.5,140.2z
				 M93.6,138.4l-5.9,0c-1,0-1.9-0.5-2.5-1.2l10.9,0C95.6,137.9,94.7,138.4,93.6,138.4z M96.5,135.5l-11.6,0c-1.1,0-2.1-0.9-2.1-2.4
				c0-1.4,1-2.4,2.1-2.4l11.6,0c1.1,0,2.1,1,2.1,2.3C98.6,134.5,97.5,135.5,96.5,135.5z"/>
		</g>
		<g>
			<path fill="#991D20" d="M164.6,134.6l-8.6,0c-1,0-1.9,0-2.1-1.2c-0.3-1.5,1.1-1.8,1.1-1.8c-0.1,0.1-0.5,0.7-0.2,1.4
				c0.2,0.6,0.8,0.5,1.6,0.5l9.6,0C166,134.5,164.6,134.6,164.6,134.6z"/>
			<path fill="#991D20" d="M162.3,172h-4.2c-0.7,0-1.4-0.1-1.6-0.9c-0.3-0.9,0.7-1.2,0.7-1.2c-0.1,0.1-0.2,0.4,0,0.8
				c0.2,0.4,0.6,0.4,1.2,0.4l4.9,0C163.2,172,162.3,172,162.3,172z"/>
			<path fill="#991D20" d="M167.8,129.7c1.4-1.3,2.7-3.5,1.8-6.7l0-0.1c0,0-1.4-3.5-0.2-7.4l0.4-1.3l-1.3,0.2
				c-0.2,0-1.8,0.3-3.7,2.2c-1.6-3.2-4.6-5.6-7.8-7.2c1.2,3.7,1.3,5.1,0.4,6.6c-2.2-2-4.8-2.4-4.9-2.4l-1.5-0.2l0.6,1.4
				c1,2.3,0.2,3.8-0.7,5.6c-0.7,1.3-1.4,2.9-1.4,4.7c0,2.5,1.3,4,2.4,4.9c-0.8,0.8-1.4,1.8-1.4,3.1c0,1.5,0.8,2.9,2,3.6
				c0.4,1.2,1.2,2.2,2.3,2.8l1.4,27.8c-1.7,0.4-2.9,1.9-2.9,3.6c0,1.9,1.5,3.5,3.3,3.7l0.6,11.1c0,1.6,1.3,3,3,3c1.7,0,3-1.3,3-3
				l0.5-11.2c1.9-0.2,3.3-1.8,3.3-3.7c0-1.8-1.3-3.3-3-3.6l1.2-27.7c1.2-0.6,2.1-1.6,2.5-2.9c1.2-0.7,2-2.1,2-3.5
				C169.6,131.8,168.9,130.5,167.8,129.7z M167.3,116.8c-0.6,3.5,0.5,6.4,0.6,6.8c1,3.6-1.7,5.2-2.3,5.5l-0.1,0l-2.7,0
				c1.7-2.2,3-5.1,3-7.7c0-0.8-0.1-1.5-0.2-2.2l-0.2-0.8C166.1,117.7,166.8,117.1,167.3,116.8z M159.5,112.8
				c2.1,1.7,4.7,4.9,4.7,8.6c0,3.3-2.9,7.2-3.6,7.7c-0.6-0.7-1.2-2.1-1.2-3.7c0-2.8,1.3-4.4,1.3-4.4s-2,1.3-2.3,3.8
				c-0.1,1.2,0.1,2.6,1,4.3h-1.2c-0.3-0.5-2.7-3.4-0.7-6.7c0.3-0.5,1.8-2.7,2-3.1c0.2-0.5,0.2-1,0.2-1c-0.2,0.4-0.7,0.9-0.7,0.9
				c-0.4,0.5-1.8,1.9-2.3,2.5c-2.8,3.4-0.1,7.1,0.1,7.5c-0.1,0-1.1,0-1.1,0c-1.2-1.4-1.7-2.8-1.5-4.9
				C154.4,119.6,160.1,119,159.5,112.8z M151.2,125.2c0-1.5,0.6-2.7,1.2-4c0.8-1.6,1.6-3.3,1.2-5.5c0.8,0.3,1.8,0.9,2.7,1.7
				c-0.6,0.7-1.2,1.3-1.5,1.8c-2.4,2.8-3.3,6.2-0.7,9.9h-0.4C153.7,129.2,151.2,128.3,151.2,125.2z M161.4,185.7
				c0,0.7-0.5,1.3-1.3,1.3c-0.7,0-1.3-0.6-1.3-1.3l-0.5-11.1h0.7l0.4,10.7c0,0.8,0.4,1,0.4,1l-0.2-11.7l2.4,0L161.4,185.7z
				 M165.3,170.9c0,1.1-0.9,2-2,2l-6.3,0c-1.1,0-2-0.9-2-2c0-1.1,0.9-2,2-2l6.3,0C164.4,168.9,165.3,169.8,165.3,170.9z M156.5,140
				c0,0,0.4,0.1,1.1,0.1l1,27.1l-0.8,0L156.5,140z M158.9,140.2c1.3,0.1,2.9,0,4.6-0.2l-1.2,27.2l-2.9,0L158.9,140.2z M163,138.4
				l-5.9,0c-1,0-1.9-0.5-2.5-1.2l10.9,0C164.9,137.9,164,138.4,163,138.4z M165.8,135.5l-11.6,0c-1.1,0-2.1-0.9-2.1-2.4
				c0-1.4,1-2.4,2.1-2.4l11.6,0c1.1,0,2.1,1,2.1,2.3C167.9,134.5,166.9,135.5,165.8,135.5z"/>
		</g>
		<g>
			<path fill="#991D20" d="M136.2,132.6c1.8-1.5,4-4.4,2.7-9.1l0-0.1c0-0.1-2-5-0.3-10.5l0.4-1.3l-1.3,0.2c-0.1,0-2.4,0.3-5.2,3.2
				c-2.6-5.5-8.3-8.9-8.6-9.1l-2.1-1.2l0.8,2.3c0.3,0.9,1,3.7,0.4,5.7c-0.2,0.6-0.5,1.1-0.7,1.5c-3-2.9-6.7-3.5-6.9-3.5l-1.5-0.2
				l0.6,1.4c1.4,3.3,0.3,5.5-0.9,8.1c-0.9,1.9-1.9,3.9-1.9,6.4c0,3.4,1.8,5.6,3.5,6.7c-1.3,1-2.1,2.5-2.1,4.2c0,2.1,1.2,3.9,3,4.8
				c0.3,1.8,1.5,3.3,3.1,4l1.8,39c-2.2,0.4-3.9,2.3-3.9,4.7c0,2.5,1.9,4.5,4.3,4.7l0.7,15.7c0,2.2,1.8,4,4,4c2.2,0,4-1.8,4-4
				l0.7-15.7c2.5-0.1,4.6-2.2,4.6-4.7c0-2.4-1.8-4.4-4.1-4.7l1.8-39c1.7-0.8,2.9-2.3,3.2-4c1.7-0.9,2.9-2.7,2.9-4.7
				C139,135.3,137.8,133.5,136.2,132.6z M136.5,114.1c-1.1,5.2,0.5,9.5,0.8,10c1.3,4.7-1.8,7.1-3.1,7.9c-0.2,0-0.4,0-0.5,0l-4.2,0
				c1.8-2.2,4.4-6.3,4.4-11.4c0-1.3-0.2-2.6-0.6-3.8C134.4,115.4,135.6,114.5,136.5,114.1z M124.5,113.3c0.5-1.5,0.4-3.2,0.2-4.5
				c2.6,2,7.2,6.4,7.3,11.9c0,5.6-3.6,9.9-5,11.4l-0.2,0c-0.8-1-1.7-3-1.7-5.1c0-3.8,1.9-6.1,1.9-6.1s-2.8,1.8-3.2,5.3
				c-0.2,1.7,0.2,3.5,1.3,5.9h-1.7c-0.5-0.8-3.6-4.8-1-9.3c0.4-0.8,2.5-3.7,2.7-4.3c0.3-0.7,0.3-1.4,0.3-1.4
				c-0.3,0.5-0.9,1.2-0.9,1.2c-0.6,0.6-2.6,2.7-3.2,3.4c-3.8,4.6-0.2,9.7,0.1,10.3l-1.9,0c-5.3-6.9,0.3-12.3,0.5-12.5l0.1-0.1
				c0.4-0.4,0.7-0.8,1-1.1C122.6,116.8,123.7,115.5,124.5,113.3z M113.3,126.4c0-2.1,0.8-3.8,1.7-5.6c1.2-2.4,2.3-4.8,1.5-8
				c1.3,0.4,3.1,1.2,4.6,2.9c-0.4,0.5-0.8,0.9-1.2,1.4c-0.3,0.4-0.7,0.7-1.1,1.2c-0.5,0.5-6.1,6.5-1.4,13.8c-0.2,0-0.4,0.1-0.6,0.1
				C116.4,132,113.3,130.5,113.3,126.4z M122.4,146.6L124,185l-1.5,0l-1.8-38.5c0.1,0,0.3,0,0.4,0L122.4,146.6z M128.2,210.2
				c0,1.3-1,2.3-2.3,2.3c-1.3,0-2.3-1-2.3-2.3l-0.7-15.6l1.4,0l0.6,15.3c0,1.1,0.5,1.4,0.5,1.4l-0.3-16.6l3.8,0L128.2,210.2z
				 M133.5,189.8c0,1.7-1.3,3-3,3l-8.9,0c-1.7,0-3-1.3-3-3c0-1.7,1.3-3,3-3l8.9,0C132.2,186.8,133.5,188.1,133.5,189.8z M129.4,185
				l-4.5,0l-0.5-38.4l6.1,0c0.2,0,0.4,0,0.6,0L129.4,185z M130.5,144.9l-9.3,0c-1.5,0-2.8-0.9-3.3-2.2c0.1,0,0.3,0,0.4,0l15.3,0
				c0.2,0,0.3,0,0.5,0C133.6,143.9,132.1,144.8,130.5,144.9z M133.6,140.9l-15.3,0c-2,0-3.6-1.6-3.6-3.6c0-2,1.6-3.6,3.6-3.6l15.3,0
				c0.3,0,0.5,0,0.8,0.1l0,0c0,0,0,0,0,0c1.6,0.4,2.8,1.8,2.8,3.5C137.2,139.3,135.6,140.9,133.6,140.9z"/>
			<path fill="#991D20" d="M117.4,137.4c-0.4-1.1,0.1-2.2,0.3-2.3c0,0-2.2,0.4-1.6,2.8c0.4,1.9,1.7,2,3.3,2l13.9,0
				c0,0,1.6,0.2,2.2-1.4l-15.5,0C118.7,138.5,117.8,138.4,117.4,137.4z"/>
			<path fill="#991D20" d="M120.9,189.9c-0.3-0.9,0.1-1.7,0.2-1.8c0,0-1.7,0.3-1.3,2.2c0.3,1.5,1.3,1.6,2.6,1.6l7.6,0
				c0,0,1.3,0.1,1.8-1.1l-8.9,0C121.9,190.8,121.2,190.7,120.9,189.9z"/>
		</g>
	</g>
	<path fill="#991D20" d="M209.1,65.6l-0.3-5c-0.3-4.6-0.9-9.5-1.7-14.5l-0.6-3.4c-0.3-1.8-0.7-3.6-1.1-5.4l-0.3-1.5l-1.5,0.4
		c0,0-2.5,0.7-6.5,1.4l-9.8,1.1c-1.9,0.1-4,0.2-6.2,0.2c-5.7,0-11.3-0.5-16.7-1.5l-3.4-0.7c-0.1,0-0.1,0-0.2,0c-0.1,0-2.8-0.6-7-2
		l-4.6-1.7c-4.6-1.8-10-4.5-15.4-8.1l-4.5-3.3c-0.8-0.7-1.7-1.3-2.5-2.1l-1-0.9l-1,0.9c0,0-0.8,0.8-2.4,2l-4.6,3.3
		c-3.7,2.5-9,5.5-15.5,8.1L98,34.7c-2.2,0.8-4.5,1.5-7,2.1c-0.1,0-0.1,0-0.2,0l-4,0.9c-4.7,0.9-9.7,1.3-15,1.3
		c-2.6,0-5.1-0.1-7.4-0.3l-9.8-1.1c-3.9-0.6-6.3-1.2-6.3-1.2L46.8,36l-0.3,1.5c-0.3,1.5-0.6,2.9-0.9,4.3l-0.7,4.4
		c-0.8,4.9-1.3,9.6-1.6,14.2l-0.3,5c-0.1,2.5-0.2,4.8-0.2,7.1l0,4.9c0.3,13.7,1.9,23.2,2,24c0.2,1.2,3.1,23.3,14.1,50
		c10.3,25,30.1,59.3,65.7,80.9l1.5,0.9l1.5-0.9c35.6-21.7,55.3-56,65.5-81.1c10.9-26.7,13.8-48.8,13.9-50c0.1-0.8,1.7-10.1,2-23.7
		l0-4.9C209.2,70.3,209.2,68,209.1,65.6z M170.7,101.7l-0.4-1.4c-5.1,1.4-8.8,2-11.5,2c0,0,0,0,0,0c-4.7,0-12.1-0.6-20.3-3.5
		c-2.2-0.8-4.9-1.6-7.8-2.1c-3-0.5-5.5-0.6-8.2-0.2c-3.4,0.4-6.6,1.4-9.2,2.4c-8.3,2.9-15.6,3.5-20.3,3.5c0,0,0,0,0,0
		c-4,0-9.7-1.5-14.6-2.9l-0.4,1.4l0.4-1.4c-1.4-0.4-2.8-0.8-4.2-1.2l-1.6-0.5c-2.9-0.9-7.9-1.5-11.4-1.5c0,0,0,0,0,0
		c-4.9,0-9.2,1.1-13.5,3.3c-0.1-0.7-0.3-1.8-0.4-3.1c4.3-2.3,9-3.6,13.9-3.6c0,0,0,0,0.1,0c3.3,0,8,0.6,10.6,1.4l5.8,1.7l0.4-1.4
		l-0.4,1.4c5.4,1.6,11.1,3,15.4,3c0,0,0,0,0,0c4.9,0,12.6-0.7,21.3-3.7c2.5-0.9,5.5-1.8,8.6-2.2l2.8-0.2c0.1,0,0.1,0,0.2,0l4.4,0.4
		c2.7,0.5,5.2,1.3,7.3,2c8.6,3,16.3,3.7,21.2,3.7c0,0,0.1,0,0.1,0c3,0,6.7-0.7,12.2-2.1c2.2-0.6,4.5-1.3,6.6-1.9l2.4-0.7
		c2.6-0.8,7.5-1.4,10.8-1.4c0,0,0,0,0,0c4.9,0,9.7,1.3,14,3.6c-0.2,1.3-0.3,2.3-0.4,3c-4.3-2.1-8.7-3.2-13.6-3.2c0,0,0,0,0,0
		c-3.2,0-8.4,0.6-11.6,1.5l-2.4,0.7c-2.1,0.6-4.3,1.3-6.5,1.9L170.7,101.7z M93.2,92.8C93.2,92.8,93.2,92.8,93.2,92.8
		c3.5,0,8.3-0.4,13.8-1.6c2.4-0.5,4.9-1.2,7.5-2.1c2.5-0.9,5.4-1.8,8.6-2.2l3-0.2l4.4,0.4c2.7,0.5,5.4,1.3,7.3,2
		c3.2,1.1,6.3,1.9,9.1,2.5c4.8,0.9,9,1.2,12.1,1.2c0,0,0,0,0,0c3,0,6.8-0.7,12.2-2.1c2.3-0.6,4.6-1.3,6.8-1.9l2.2-0.7
		c2.6-0.8,7.5-1.4,10.8-1.4c0,0,0,0,0,0c5,0,10.2,1.3,14.4,3.5c-0.1,1.2-0.2,2.2-0.3,3.2c-4.4-2.2-9.4-3.4-14.4-3.4c0,0,0,0,0,0
		c-3.2,0-8.4,0.6-11.6,1.5l-2.4,0.7c-2.1,0.6-4.4,1.3-6.6,1.9c-3.3,0.9-8,2-11.6,2c-4.7,0-12-0.6-20.3-3.5c-1-0.4-2.2-0.8-3.5-1.1
		c-1.4-0.4-2.8-0.8-4.3-1c-1.7-0.3-3.2-0.4-4.8-0.4c-1.1,0-2.3,0.1-3.4,0.2v0c-1.8,0.2-3.5,0.6-5.1,1.1c-1.4,0.4-2.8,0.9-4.1,1.3
		c-8.3,2.9-15.6,3.5-20.3,3.5c0,0,0,0,0,0c-4,0-9.7-1.5-14.6-2.9l-5.8-1.7c-2.9-0.9-7.8-1.5-11.4-1.5c0,0,0,0-0.1,0
		c-5,0-9.9,1.2-14.3,3.4c-0.1-1-0.2-2-0.3-3.1c4.4-2.3,9.7-3.6,14.8-3.6c0,0,0,0,0,0c3.3,0,8,0.6,10.6,1.4l5.8,1.7l0.4-1.4l-0.4,1.4
		C83.2,91.4,88.8,92.8,93.2,92.8z M126.1,83.8l0,0.2L126.1,83.8c-1.2,0-2.3,0.1-3.4,0.2v0c-3.4,0.4-6.5,1.4-9.2,2.4
		c-7.1,2.5-13.5,3.3-18.2,3.5c2.1-15.3,15-26.7,30.6-26.7c0,0,0,0,0,0c15.4,0,28.5,11.5,30.7,26.6c-4.6-0.2-11-1-17.9-3.4
		c-2.1-0.7-4.9-1.6-7.8-2.1l0,0.1l0-0.1C129.3,83.9,127.7,83.8,126.1,83.8z M171,89.2l-0.4-1.4c-3.1,0.8-7.5,1.9-11,2
		c-0.4-2.9-1.2-5.8-2.3-8.4l48.9-3.7c-0.1,3.4-0.2,6.5-0.4,9.2c-4.5-2.1-9.7-3.3-14.7-3.3c0,0,0,0,0,0c-3.2,0-8.4,0.6-11.6,1.5
		l-2.2,0.7c-2.2,0.6-4.5,1.3-6.7,1.9L171,89.2z M206.3,73l-49.8,6.6c-0.4-0.8-0.8-1.6-1.2-2.3l50.8-11.1
		C206.3,68.5,206.3,70.8,206.3,73z M204.4,47.3c0.7,4.8,1.2,9.5,1.5,14l-51.5,14.4c-0.9-1.4-1.9-2.7-3-3.9L204.4,47.3z M191.4,41.3
		c5.4-0.5,9.5-1.4,11.5-1.9c0.2,0.9,0.3,1.8,0.5,2.8l-53.2,28.5c-0.5-0.6-1.1-1.1-1.7-1.6L191.4,41.3z M164.6,40.4
		c5.4,0.9,10.9,1.4,16.6,1.4c0.7,0,1.3,0,2,0L147.4,68c-1.4-1.2-3-2.2-4.6-3.2L164.6,40.4z M152.3,37.3c3.1,1.1,5.5,1.7,6.8,2
		l-18.3,24.4c-0.9-0.5-1.9-0.9-2.9-1.2L152.3,37.3z M133.5,28.1c5.1,3.3,10.2,5.8,14.6,7.5l-12,26.1c-2.2-0.7-4.5-1.2-6.9-1.4
		L133.5,28.1z M126,22.6c1.1,0.9,2.2,1.8,3.2,2.6l-1.9,35.1c-0.4,0-0.8-0.1-1.2-0.1c0,0,0,0,0,0c-0.4,0-0.8,0-1.3,0.1l-1.9-35.2
		C124.2,24.1,125.3,23.2,126,22.6z M118.4,28.1l4.4,32.3c-2.4,0.2-4.8,0.7-7,1.4l-12-26.2C109.8,33.2,114.7,30.5,118.4,28.1z
		 M99.4,37.3l14.4,25.2c-1,0.4-1.9,0.8-2.9,1.3L92.7,39.4C95,38.7,97.3,38,99.4,37.3z M71.8,42c5.5,0,10.7-0.5,15.6-1.4L109,64.8
		c-1.6,0.9-3.2,2-4.6,3.2L68.6,41.9C69.7,41.9,70.7,42,71.8,42z M49,39.6c2,0.4,6.1,1.2,11.3,1.8l42.9,27.8
		c-0.6,0.5-1.1,1.1-1.7,1.6l-53-28.4C48.6,41.4,48.8,40.5,49,39.6z M47.6,47.5L100.4,72c-1,1.2-2,2.4-2.8,3.7L46.1,61.2
		C46.4,56.8,46.9,52.2,47.6,47.5z M45.8,66.1l50.9,11.1c-0.4,0.8-0.9,1.6-1.2,2.4l-49.8-6.7C45.7,70.7,45.7,68.4,45.8,66.1z
		 M94.7,81.4c-1.1,2.7-1.9,5.5-2.2,8.5c-3.9-0.2-9.2-1.5-13.9-2.8l-5.8-1.7c-2.9-0.9-7.8-1.5-11.4-1.5c0,0,0,0,0,0
		c-5.2,0-10.5,1.2-15.1,3.4c-0.2-2.9-0.4-6.1-0.4-9.6L94.7,81.4z M190.6,150.2c-10.1,24.7-29.5,58.4-64.4,79.7
		c-35-21.2-54.4-54.9-64.6-79.5c-9.4-22.7-12.8-41.9-13.7-47.6c4.2-2.3,8.3-3.5,13-3.5c0,0,0,0,0,0c3.3,0,8,0.6,10.6,1.4l1.6,0.5
		c1.4,0.4,2.8,0.8,4.2,1.2v0c5.2,1.5,11,3,15.4,3c0,0,0,0,0,0c4.9,0,12.6-0.7,21.3-3.7c2.5-0.9,5.4-1.8,8.6-2.2l2.9-0.2
		c0.1,0,0.1,0,0.2,0l4.4,0.4c2.7,0.5,5.2,1.3,7.3,2c8.6,3,16.3,3.7,21.3,3.7c0,0,0,0,0,0c3,0,6.9-0.7,12.2-2.1v0
		c2.2-0.6,4.5-1.3,6.6-1.9l2.4-0.7c2.7-0.8,7.5-1.4,10.8-1.4c0,0,0,0,0,0c4.7,0,9,1.1,13.1,3.4C203.3,108,199.9,127.4,190.6,150.2z"
		/>
</g>
</svg>
