<?xml version="1.0" encoding="utf-8"?>
<!-- Generator: Adobe Illustrator 18.1.0, SVG Export Plug-In . SVG Version: 6.00 Build 0)  -->
<!DOCTYPE svg PUBLIC "-//W3C//DTD SVG 1.1//EN" "http://www.w3.org/Graphics/SVG/1.1/DTD/svg11.dtd">
<svg version="1.1"
	 id="svg2" xmlns:cc="http://creativecommons.org/ns#" xmlns:dc="http://purl.org/dc/elements/1.1/" xmlns:svg="http://www.w3.org/2000/svg" xmlns:rdf="http://www.w3.org/1999/02/22-rdf-syntax-ns#" xmlns:inkscape="http://www.inkscape.org/namespaces/inkscape"
	 xmlns="http://www.w3.org/2000/svg" xmlns:xlink="http://www.w3.org/1999/xlink" x="0px" y="0px" viewBox="-324 201.2 450 450"
	 enable-background="new -324 201.2 450 450" xml:space="preserve">
<g>
	<g>
		<path id="path34" inkscape:connector-curvature="0" fill="#A31934" d="M-287.3,291.3c0-4.5-1.1-6.6-4.5-6.6h-6.1
			c-0.8,0-1.1-0.3-1.1-1.2v-3.1c0-0.8,0.3-1.1,1.3-1.1c1.3,0,7.7,0.4,20.5,0.4c11.2,0,17.6-0.4,19.1-0.4c0.8,0,1.1,0.3,1.1,0.9v3.3
			c0,0.8-0.3,1.1-1.1,1.1h-5.6c-4,0-6.4,2.4-6.5,5.2c-0.1,1.6-0.4,9.6-0.4,17.3v16.5c0,6.6,0.1,16.1,0.4,20.3
			c0.4,6.1,1.5,12.2,4.7,16.5c4.5,6.1,11.7,8.2,18.1,8.2c6.1,0,13.6-2.4,17.8-6.4c5.1-5,7.7-12.8,7.7-22.5v-23.9
			c0-10.6-1.1-22.3-1.5-25.4c-0.4-3.5-2.5-5.8-5.5-5.8h-4.8c-0.8,0-1.1-0.4-1.1-0.9v-3.3c0-0.8,0.3-1.1,1.1-1.1
			c1.3,0,7.4,0.4,16.2,0.4c8.2,0,12.5-0.4,13.6-0.4c1.2,0,1.3,0.4,1.3,1.1v3.1c0,0.8-0.1,1.2-0.8,1.2h-4.8c-4.8,0-5.3,3.7-5.6,5.2
			c-0.3,1.6-0.3,20.2-0.3,21.9c0,1.9-0.3,25-0.8,30.3c-0.8,10.9-4,19.1-11.2,25.5c-5.6,5-14.1,8.2-24.2,8.2
			c-6.4,0-14.1-1.1-19.1-3.2c-7.7-3.2-13-9.3-15.7-17.8c-1.9-5.8-2.4-14.6-2.4-32V291.3"/>
		<path id="path36" inkscape:connector-curvature="0" fill="#A31934" d="M-198.8,344.2c0.5,0,0.8,0.3,0.8,1.1
			c0.3,4.3,1.3,9.3,5.1,15.2c4,6.4,10.9,9.6,17.5,9.6c7.2,0,17.3-4.5,17.3-15.6c0-12.2-5.6-16.2-19.7-21.5
			c-4.3-1.6-13-5.3-19.4-11.2c-4.5-4.3-6.6-10.9-6.6-19c0-7.4,2.9-13.6,9.3-18.6c5.3-4.5,11.2-6.4,18.9-6.4c8.8,0,14.1,2.1,16.7,3.2
			c1.3,0.5,2.1,0.3,2.8-0.4l1.7-1.7c0.5-0.5,1.1-0.8,1.9-0.8c0.8,0,1.1,0.8,1.1,2.1c0,2.1,2.1,20.7,2.1,22.1c0,0.5-0.3,0.8-0.8,0.9
			l-2.1,0.7c-0.5,0.1-1.1,0-1.3-0.8c-1.3-3.7-3.5-9-8.2-14.1c-3.5-3.7-7.7-5.6-13.8-5.6c-10.6,0-14.9,8.5-14.9,13.4
			c0,4.5,0.5,8.5,3.7,12c3.5,3.5,10.9,6.6,16.2,8.2c7.7,2.4,14.1,5,19.1,10.4c4.3,4.5,6.7,10.1,6.7,19c0,16.2-10.6,29.5-28.2,29.5
			c-10.9,0-17.3-2.4-22.6-6.4c-1.6-1.1-2.4-1.6-3.2-1.6c-0.8,0-1.3,1.1-2.1,2.4c-0.8,1.3-1.3,1.6-2.4,1.6c-1.1,0-1.6-0.8-1.6-2.1
			c0.3-1.6,2.1-23.1,2.4-24.7c0.1-0.8,0.3-1.1,0.8-1.1L-198.8,344.2"/>
		<path id="path38" inkscape:connector-curvature="0" fill="#A31934" d="M-53.9,352.2c0.4,0.4,0.5,0.8,0.3,1.3
			c-8,11.4-20.7,22.3-39.6,22.3c-17,0-26.6-5.1-34.8-12.5c-9.8-8.8-14.4-24.2-14.4-35.9c0-13,4.3-25.5,13.6-35.6
			c7.2-7.7,18.6-14.1,34.6-14.1c12.2,0,22.1,3.7,26.9,6.4c1.9,1.1,2.4,1.1,2.7,0l1.1-3.5c0.3-0.8,0.5-0.8,2.1-0.8
			c1.6,0,1.9,0.3,1.9,2.1c0,2.4,2.7,23.7,3.2,27.6c0.1,0.8,0,1.2-0.5,1.3l-2.5,0.8c-0.7,0.3-1.1-0.3-1.5-1.3
			c-1.6-4.8-4.8-11.4-10.4-17.3c-5.8-5.6-12.8-9.8-23.1-9.8c-21.3,0-30,19.1-30,38.3c0,8.2,2.4,23.9,12.2,34.6
			c8.8,9.3,16.5,10.4,22.9,10.4c14.6,0,26.2-7.3,31.8-15.4c0.7-0.9,1.2-1.3,1.6-0.9L-53.9,352.2"/>
	</g>
	<g>
		<path id="path16" inkscape:connector-curvature="0" d="M-299,399.4c0-0.7,0.1-0.9,0.9-0.9c1.3,0,5.6,0.4,15.9,0.4
			c11,0,16.9-0.4,18.1-0.4c1.2,0,1.3,0.4,1.3,0.9v3c0,0.7-0.1,1.2-1,1.2h-6.3c-3.7,0-5.5,1.2-5.5,3.4c0,1,0.1,2.6,0.5,4.5
			c0.8,4.7,5.6,20.3,8,27.7c1.6,5,9.2,27.6,12.2,35.6h0.3c2.8-6.2,13-33.2,14.1-36.2c1.3-3.5,6.3-18.7,8.3-24.4
			c1-3.3,1.8-5.6,1.8-7.5c0-1.6-0.9-3-4.2-3h-3.4c-0.5,0-0.7-0.4-0.7-1.2v-3c0-0.7,0.1-0.9,0.8-0.9c1.2,0,7.2,0.4,15.5,0.4
			c9.6,0,12.9-0.4,14-0.4c0.8,0,0.9,0.3,0.9,0.9v3.3c0,0.5-0.1,0.9-0.9,0.9h-3.5c-4.3,0-6.8,2.1-9.3,5.1
			c-3.4,4.2-13.9,31.1-16.2,36.6c-1.6,4.3-18.5,46.1-19.2,47.4c-0.5,1-1.2,1.7-1.8,1.7c-1,0-1.6-1.3-2.2-3
			c-4.2-12.1-14.8-42-16.5-46.8l-1.3-4.5c-3.2-9.3-9.3-28.4-11-32.3c-1.3-3-2.6-4.3-5.4-4.3h-3.4c-0.5,0-0.7-0.4-0.7-0.9L-299,399.4
			"/>
		<path id="path18" inkscape:connector-curvature="0" d="M-216.6,453.6c0-4.5-0.8-6.8-7.3-7.9c-0.9-0.1-1.2-0.4-1.2-0.9v-1.2
			c0-0.4,0.3-0.7,0.9-0.9c4.2-1.6,9.2-3.7,14.2-6.4c1-0.5,1.7-0.8,2.5-0.8c0.7,0,0.8,0.7,0.7,1.6c-0.3,2.2-0.3,10.5-0.2,21.4v14.3
			c0,5.1,0,9.8,0.1,11.3c0.3,2.5,0.7,3.4,2.1,3.4h6c1,0,1.3,0.4,1.3,1.2v2.2c0,0.9-0.3,1.3-1.2,1.3c-1,0-7.1-0.4-12.6-0.4
			c-7.6,0-12.7,0.4-14.2,0.4c-0.7,0-1-0.3-1-1.1v-2.6c0-0.8,0.4-1.1,1.3-1.1h6.4c1.4,0,2-0.5,2.1-2.6c0.1-3.9,0.1-8,0.1-11.9
			L-216.6,453.6"/>
		<path id="path20" inkscape:connector-curvature="0" d="M-219.6,422.9c0-3.3,2.8-6.8,8-6.8c4.6,0,6.8,3.5,6.8,6.4
			c0,3.4-2.4,7.2-7.6,7.2C-215.2,429.7-219.6,427.1-219.6,422.9"/>
		<path id="path22" inkscape:connector-curvature="0" d="M4.9,453.6c0-4.5-0.8-6.8-7.4-7.9c-0.9-0.1-1.2-0.4-1.2-0.9v-1.2
			c0-0.4,0.3-0.7,0.9-0.9c4.2-1.6,9.2-3.7,14.2-6.4c1-0.5,1.7-0.8,2.5-0.8c0.7,0,0.8,0.7,0.7,1.6c-0.3,2.2-0.3,10.5-0.3,21.4v14.3
			c0,5.1,0,9.8,0.1,11.3c0.3,2.5,0.7,3.4,2.1,3.4h6c1.1,0,1.3,0.4,1.3,1.2v2.2c0,0.9-0.3,1.3-1.2,1.3c-1.1,0-7.1-0.4-12.6-0.4
			c-7.6,0-12.7,0.4-14.2,0.4c-0.7,0-1.1-0.3-1.1-1.1v-2.6c0-0.8,0.4-1.1,1.3-1.1h6.4c1.4,0,2-0.5,2.1-2.6c0.1-3.9,0.1-8,0.1-11.9
			L4.9,453.6"/>
		<path id="path24" inkscape:connector-curvature="0" d="M1.9,422.9c0-3.3,2.8-6.8,8-6.8c4.6,0,6.8,3.5,6.8,6.4
			c0,3.4-2.4,7.2-7.6,7.2C6.3,429.7,1.9,427.1,1.9,422.9"/>
		<path id="path26" inkscape:connector-curvature="0" d="M-178,475.4c0,9.8,4.5,11.6,6.8,11.6c3,0,6.8-0.5,8.7-1.7
			c0.7-0.4,1.2-0.3,1.6,0.3l0.7,1.2c0.4,0.5,0.1,1.1-0.3,1.5c-1.3,1.3-6.7,5.3-14.6,5.3c-6.4,0-12.7-6.2-12.7-11.2
			c0-5.4,0.4-17,0.4-18.8v-2.9c0-2.4,0.1-11.2,0.3-16.7h-8c-1.2,0-2-0.5-2-1.6c0-1,0.8-1.4,2.4-2.4c3.2-1.8,13.3-12.1,15-16.5
			c0.4-1,1-1.3,1.8-1.3c1,0,1.3,0.9,1.3,2l-0.7,13h18.3c0.8,0,1.2,0.7,0.9,1.2l-1.3,4.6c-0.1,0.7-0.4,1-1.2,1l-16.9,0
			c-0.3,6-0.4,12.3-0.4,18.4L-178,475.4"/>
		<path id="path28" inkscape:connector-curvature="0" d="M-145.9,456.9c-0.3,1.2-0.4,3.3-0.4,6.3c0,12.9,8.2,22.6,18.7,22.6
			c8,0,13.7-4.6,15.9-8.9c0.3-0.5,0.8-0.8,1.2-0.7l1.7,0.9c0.4,0.1,0.7,0.5,0,2c-2.4,5.3-9.2,14.3-20.9,14.3
			c-7.5,0-15.8-2.2-20.6-9.3c-4.6-6.7-5.8-11.5-5.8-20.7c0-5.1,1.3-13.9,8.3-20.9c5.6-5.8,12.2-7,18.8-7c15.1,0,19.3,14.2,19.3,19.3
			c0,1.8-1.6,2.1-3.7,2.1C-113.4,456.9-145.9,456.9-145.9,456.9z M-125,452.9c2.5,0,3.5-0.7,3.5-1.8c0-3-1.6-11.7-10.1-11.7
			c-5.8,0-11.3,3.8-13.8,13.5L-125,452.9"/>
		<path id="path30" inkscape:connector-curvature="0" d="M-94.9,456.9c0-6.7-1.1-8-4.7-10l-2.5-1.3c-0.8-0.3-1.1-0.4-1.1-0.9v-0.8
			c0-0.5,0.3-0.8,1.1-1.2l13-6.7c0.8-0.4,1.3-0.5,1.8-0.5c0.8,0,0.9,0.8,0.9,1.6l0.7,9.1h0.5c3.9-6,10.1-11.4,15.8-11.4
			c4.5,0,6.7,2.8,6.7,5.8c0,3.8-3.2,6.4-5.5,6.4c-1.4,0-2.7-0.5-3.8-1c-1-0.7-2.6-1-4.3-1c-2.1,0-5.5,1.3-7.7,5.5
			c-0.8,1.4-1.3,3.8-1.3,4.2v27.6c0,4.1,0.9,5.4,3.7,5.4h6.2c0.8,0,0.9,0.4,0.9,1.2v2.4c0,0.8-0.1,1.2-0.7,1.2
			c-0.8,0-6.8-0.4-13.9-0.4c-8.1,0-13.7,0.4-14.4,0.4c-0.5,0-0.8-0.3-0.8-1.3v-2.2c0-0.9,0.3-1.2,1.4-1.2h5.1c2,0,2.9-0.8,2.9-2.5
			c0.1-4.3,0.1-8.9,0.1-15.8V456.9"/>
		<path id="path32" inkscape:connector-curvature="0" d="M-57.4,421c0-8.8-1.4-10.6-6.2-12.2l-1.3-0.4c-1.4-0.4-1.7-0.7-1.7-1.1v-1
			c0-0.4,0.3-0.7,1-1c3.8-1.7,10.6-5.1,13.9-7.2c0.9-0.7,2-1.2,2.7-1.2c0.9,0,1.2,0.7,1.1,2.2c-0.1,1-0.1,16-0.1,27.7V442
			c4.2-4.1,11.7-6.6,18.1-6.6c11.6,0,24,9.3,24,28.1c0,15.4-12.3,29.8-27.3,29.8c-7.3,0-12.5-1.6-15.5-3.4l-5.3,2.9
			c-0.5,0.4-0.9,0.5-1.7,0.4l-1.6-0.4c-0.5-0.1-0.7-0.4-0.5-1.1c0.3-1.8,0.3-12.7,0.3-22.3L-57.4,421L-57.4,421z M-47.9,463.6
			c0,10.9,0.4,14.8,2,19c1.3,3.2,6.8,6.6,12.5,6.6c7.9,0,17.6-5.4,17.6-22.6c0-12.7-6.7-24.8-19.6-24.8c-4.9,0-9.6,1.7-12.5,4.7
			L-47.9,463.6"/>
	</g>
	<g>
		<path id="path40" inkscape:connector-curvature="0" d="M-296,560.8c-0.5-0.4-0.8-0.5-1-0.5c-0.3,0-0.5,0.3-0.7,0.8
			c-0.3,0.5-0.5,0.5-0.8,0.5c-0.3,0-0.5-0.2-0.4-0.7c0.2-1.1,0.6-6.9,0.8-8.2c0-0.3,0.1-0.3,0.3-0.3l0.7,0c0.2,0,0.3,0.1,0.3,0.4
			c0,1.4,0.1,2.9,1.6,5.2c1.4,2.1,3.8,3.3,6.3,3.3c2.7,0,6.1-1.7,6.1-5.7c0-4.6-3.3-6.4-6.9-7.6c-1.4-0.5-4.6-1.6-6.6-3.7
			c-1.5-1.5-2.3-3.6-2.3-6.6c0-2.3,1.4-4.5,2.8-5.8c1.6-1.5,3.9-2.2,6.3-2.2c2.6,0,4.6,0.8,5.3,1.1c0.4,0.2,0.6,0.2,0.9,0l0.6-0.5
			c0.2-0.2,0.4-0.3,0.6-0.3c0.2,0,0.4,0.4,0.4,0.8c0,1.6,0.6,6.2,0.6,7.2c0,0.2,0,0.3-0.2,0.4l-0.5,0.1c-0.1,0-0.2,0-0.3-0.1
			c-0.4-1.3-0.9-3.1-2.8-5c-1.2-1.3-2.8-1.9-4.9-1.9c-4,0-5.5,3-5.5,5.3c0,1.3,0.3,2.8,1.4,3.9c1.3,1.3,3.8,2.3,5.1,2.7
			c3.1,1,5.6,1.8,7.3,3.7c1.2,1.4,2,3.2,2,6.1c0,5.3-3.2,9.9-9.2,9.9C-292,563.2-294.2,562.2-296,560.8"/>
		<path id="path42" inkscape:connector-curvature="0" d="M-273.6,551.6c0,2.4,1.1,5.2,2.3,6.9c1.5,1.9,3.4,2.3,4.9,2.3
			c2.3,0,3.4-0.5,5-1.9c0.1-0.1,0.2-0.1,0.4,0l0.5,0.4c0.2,0.2,0.2,0.3,0,0.6c-1.3,1.5-4.2,3.2-7.3,3.2c-2.4,0-4.9-0.5-7-3.2
			c-1.7-2.2-2-4.1-2-6.1c0-5.3,3.7-10.6,9.6-10.6c4.7,0,6.1,2.7,6.1,3.7c0,1-0.7,1.6-1.7,1.6c-1,0-1.8-0.6-2.5-1.8c-1-1.8-1.9-2-3-2
			C-270.8,544.6-273.6,547-273.6,551.6"/>
		<path id="path44" inkscape:connector-curvature="0" d="M-255.8,537.9c0-2.8-0.5-3.2-2.2-3.8l-0.8-0.3c-0.3-0.1-0.3-0.1-0.3-0.3
			v-0.4c0-0.2,0.1-0.2,0.5-0.5l4.7-2.5c0.4-0.2,0.7-0.4,1-0.4c0.3,0,0.5,0.4,0.4,1.1c-0.1,0.8-0.1,9.9-0.1,12.2v2.9h0.2
			c1.6-1.9,4.2-2.9,6.2-2.9c1.9,0,3.2,0.6,4.5,1.8c2,1.9,1.9,4.2,1.9,6.6v2.6c0,2.5,0.1,5.3,0.1,6.2c0,0.5,0.7,0.7,1.7,0.7h0.8
			c0.4,0,0.5,0.1,0.5,0.4v0.7c0,0.4-0.1,0.5-0.4,0.5c-0.3,0-1.8-0.1-4.3-0.1c-2.2,0-3.8,0.1-4.2,0.1c-0.3,0-0.4-0.1-0.4-0.5v-0.8
			c0-0.2,0-0.4,0.3-0.4h1c0.8,0,1.7-0.1,1.7-0.9c0-0.6,0-3,0-4.5v-3.7c0-2.5-0.2-4.3-1.5-5.5c-0.9-0.9-1.8-1.3-3-1.3
			c-1.3,0-2.9,0.5-4.2,1.9c-0.4,0.5-0.9,1.4-0.9,2.2v9.8c0,1.4,0.1,1.8,1,1.8h1.4c0.3,0,0.5,0.1,0.5,0.4v0.8c0,0.3-0.1,0.5-0.4,0.5
			c-0.4,0-2.2-0.1-4.3-0.1c-2.3,0-4,0.1-4.4,0.1c-0.2,0-0.3-0.1-0.3-0.5v-0.8c0-0.3,0.2-0.4,0.7-0.4h0.9c0.7,0,1.4-0.2,1.5-0.7
			c0.1-0.9,0.1-5.8,0.1-8.7L-255.8,537.9"/>
		<path id="path46" inkscape:connector-curvature="0" d="M-218.8,552.7c0-5-3.6-8.2-5.9-8.2c-1.2,0-2.4,0.3-3.5,1.4
			c-1.8,1.8-2.4,3.7-2.4,7.1c0,2.5,0.3,4.2,1.7,6.3c1,1.5,2.3,2.3,4.5,2.3C-221,561.7-218.8,557.5-218.8,552.7z M-231.9,559.9
			c-2.1-2.5-2.5-4.2-2.5-7.3c0-2.3,1.2-5.2,3.9-7.3c2.3-1.8,4.6-2.2,6-2.2c2.5,0,5,1.3,6.3,2.6c2,2.1,3.1,4.4,3.1,7.4
			c0,4.9-4.4,9.9-10,9.9C-227.2,563.1-230,562.2-231.9,559.9"/>
		<path id="path48" inkscape:connector-curvature="0" d="M-196.4,552.7c0-5-3.7-8.2-6-8.2c-1.2,0-2.4,0.3-3.5,1.4
			c-1.8,1.8-2.4,3.7-2.4,7.1c0,2.5,0.3,4.2,1.7,6.3c1,1.5,2.3,2.3,4.5,2.3C-198.6,561.7-196.4,557.5-196.4,552.7L-196.4,552.7z
			 M-209.4,559.9c-2.1-2.5-2.5-4.2-2.5-7.3c0-2.3,1.2-5.2,3.9-7.3c2.3-1.8,4.6-2.2,6-2.2c2.5,0,5,1.3,6.3,2.6c2,2.1,3.1,4.4,3.1,7.4
			c0,4.9-4.4,9.9-10,9.9C-204.7,563.1-207.5,562.2-209.4,559.9"/>
		<path id="path50" inkscape:connector-curvature="0" d="M-183.4,549.1c0,2.3,0,9.2,0,10.6c0,0.8,0.2,1.4,1.2,1.4h2
			c0.4,0,0.5,0.1,0.5,0.4v0.8c0,0.3-0.1,0.5-0.3,0.5c-0.3,0-2.3-0.1-5.1-0.1c-2.9,0-4.7,0.1-5.1,0.1c-0.2,0-0.3-0.2-0.3-0.5v-0.8
			c0-0.3,0.1-0.4,0.6-0.4h2.2c0.5,0,0.9-0.3,1-1.1c0-1.4,0-9.2,0-11.8v-2.8c0-3.2,0-7.3-0.1-8.5c-0.1-1.5-0.8-2.3-2.3-2.7l-0.9-0.3
			c-0.2-0.1-0.3-0.1-0.3-0.2v-0.4c0-0.1,0.1-0.2,0.4-0.3c1.6-0.7,3.6-1.5,5.3-2.6c0.4-0.3,0.7-0.4,0.9-0.4c0.3,0,0.4,0.2,0.4,0.8
			c0,2.5-0.2,11.9-0.2,14.3V549.1"/>
		<path id="path52" inkscape:connector-curvature="0" d="M-152.7,552.7c0-5-3.6-8.2-5.9-8.2c-1.2,0-2.4,0.3-3.5,1.4
			c-1.8,1.8-2.4,3.7-2.4,7.1c0,2.5,0.3,4.2,1.7,6.3c1,1.5,2.3,2.3,4.5,2.3C-154.9,561.7-152.7,557.5-152.7,552.7z M-165.7,559.9
			c-2.1-2.5-2.5-4.2-2.5-7.3c0-2.3,1.2-5.2,3.9-7.3c2.3-1.8,4.6-2.2,6-2.2c2.5,0,5,1.3,6.3,2.6c2,2.1,3.1,4.4,3.1,7.4
			c0,4.9-4.4,9.9-10,9.9C-161.1,563.1-163.8,562.2-165.7,559.9"/>
		<path id="path54" inkscape:connector-curvature="0" d="M-142.5,545.9h-3.1c-0.2,0-0.3-0.1-0.2-0.5l0.2-1.4c0-0.3,0.2-0.3,0.5-0.3
			h2.6v-0.9c0-4.5,1.3-7.4,3-9.4c2.4-2.6,4.9-3.6,7.4-3.6c2.1,0,4.1,0.8,4.1,2.5c0,1.1-1.2,1.9-1.9,1.9c-0.5,0-0.9-0.1-1.3-0.3
			c-0.4-0.2-0.9-0.8-1.1-1c-0.6-0.7-1.2-1-2.1-1c-1.2,0-2.4,0.3-3.4,1.6c-1.7,2.1-1.6,6-1.6,9.2v0.9h5.5c0.3,0,0.4,0.3,0.3,0.5
			l-0.2,1.5c0,0.2-0.2,0.2-0.6,0.2h-5v4c0,5.3,0,9.5,0,10c0.1,0.8,0.2,1.2,1.2,1.2h2.6c0.4,0,0.5,0.1,0.5,0.4v0.7
			c0,0.4-0.1,0.5-0.3,0.5c-0.3,0-1.9-0.1-5.4-0.1c-2.5,0-4.8,0.1-5.1,0.1c-0.3,0-0.4-0.1-0.4-0.3v-1c0-0.2,0.1-0.3,0.5-0.3h2.2
			c0.9,0,1-0.5,1.1-1.6L-142.5,545.9"/>
		<path id="path56" inkscape:connector-curvature="0" d="M-111.2,545.2c0.4,0,5.2-0.2,5.7-0.3c1.3-0.2,1.7-0.6,2.1-2
			c0.1-0.4,0.3-1.4,0.4-2.2c0-0.2,0.1-0.3,0.3-0.3l1.1,0c0.2,0,0.3,0.2,0.3,0.4c-0.1,0.8-0.1,4.5-0.1,5.1c0,1.6,0.2,3.7,0.3,4.7
			c0,0.2-0.1,0.3-0.3,0.4l-1,0.1c-0.2,0-0.3-0.1-0.4-0.4c-0.1-0.6-0.4-1.6-0.5-2.1c-0.3-0.9-0.8-1.6-1.9-1.8c-2.1-0.2-5.2-0.2-6-0.2
			v2.8c0,2.4,0.1,6.8,0.1,7.7c0,2.3,1.2,3.2,2.6,3.5c0.9,0.2,2.2,0.3,3.3,0.3c0.8,0,3,0,4-0.1c0.8-0.1,2.8-0.6,3.9-1.6
			c0.5-0.5,3.1-3.7,3.7-4.7c0.1-0.2,0.3-0.4,0.5-0.3l0.7,0.4c0.2,0.1,0.2,0.3,0.1,0.6l-2.4,6.6c-0.1,0.4-0.5,0.7-1,0.7
			c-0.2,0-1.2,0-3.9-0.1c-2.7,0-7.1,0-14.1,0c-1.7,0-2.9,0-3.8,0c-0.9,0-1.5,0.1-1.9,0.1c-0.3,0-0.4-0.1-0.4-0.3v-1.2
			c0-0.2,0.1-0.2,0.5-0.2h1.8c2.1,0,2.3-0.3,2.3-2v-15.1c0-3.7-0.1-9.4-0.1-9.8c-0.2-1.4-0.6-1.8-2.3-1.8h-1.6c-0.2,0-0.4,0-0.4-0.3
			v-1.2c0-0.1,0.1-0.2,0.3-0.2c1,0,2.6,0.1,5.5,0.1h2c4.5,0,8.9,0,13.4,0c0.7,0,1.6-0.1,1.8-0.1c0.2,0,0.3,0.1,0.4,0.2
			c0.2,0.6,2.2,6.8,2.3,7.3c0,0.2,0,0.3-0.1,0.4l-0.7,0.4c-0.1,0.1-0.3,0-0.4-0.1c-0.1-0.2-3.4-4.5-4.5-5.1
			c-0.9-0.6-2.2-1.2-3.4-1.2l-8-0.2L-111.2,545.2"/>
		<path id="path58" inkscape:connector-curvature="0" d="M-73,560.1c0,0.7,0.4,0.9,1,0.9h1.4c0.4,0,0.5,0.1,0.5,0.4v0.7
			c0,0.3-0.1,0.5-0.4,0.5c-0.3,0-1.7-0.1-4.3-0.1c-2.3,0-3.7,0.1-4.1,0.1c-0.3,0-0.4-0.1-0.4-0.5v-0.7c0-0.3,0.1-0.4,0.6-0.4h1.3
			c0.5,0,0.9-0.2,0.9-1c0-1.2,0.1-2.6,0.1-3.8v-6c0-1.8,0-3.1-1.3-4.1c-1.1-0.8-2.2-0.8-3.3-0.8c-0.7,0-2.3,0.3-3.6,1.8
			c-0.9,1-1,2.2-1,3.1v9.3c0,1.2,0.1,1.5,1.1,1.5h1.1c0.4,0,0.5,0.1,0.5,0.5v0.8c0,0.3-0.1,0.4-0.3,0.4c-0.3,0-1.5-0.1-3.9-0.1
			c-2.3,0-3.7,0.1-4,0.1c-0.2,0-0.3-0.1-0.3-0.4v-0.8c0-0.3,0.1-0.4,0.5-0.4h1.3c0.6,0,0.9-0.1,0.9-0.9v-10.6c0-1.4-0.7-2.1-1.8-2.7
			l-0.4-0.2c-0.3-0.1-0.4-0.3-0.4-0.4v-0.2c0-0.2,0.2-0.4,0.4-0.4l3.9-2.2c0.4-0.2,0.6-0.3,0.8-0.3c0.2,0,0.3,0.2,0.4,0.5l0.3,2.8
			h0.1c1.3-1.6,3.9-3.3,6.2-3.3c1.4,0,2.8,0.3,3.8,1c1.4,0.9,2.5,3.2,2.5,4.3L-73,560.1"/>
		<path id="path60" inkscape:connector-curvature="0" d="M-55.6,549.5c0-2-0.4-3.2-1.2-4.1c-0.6-0.6-1.5-1-2.2-1
			c-1,0-2.1,0.2-3.2,1.3c-1.4,1.5-1.6,3.6-1.6,5.3c0,1.5,0.5,2.9,1.4,3.9c0.8,0.8,1.6,1.1,2.7,1.1
			C-56.5,556.1-55.6,552.3-55.6,549.5z M-51.4,568.7c0-2.7-2-4.7-6.5-4.4l-4.3,0.3c-1.4,0.4-3.6,1.9-3.6,4.3c0,1.1,0.9,2.5,1.8,3.1
			c1.5,1,3.1,1.3,6.3,1.3C-56.1,573.3-51.1,572.2-51.4,568.7z M-66.2,573.3c-1.6-1-2.3-2.2-2.3-3.7c0-2.5,2.6-4.5,4.7-5.4v-0.2
			c-1.9-0.4-3-1.8-3-3.2c0-2.2,2.5-3.7,4.1-4.3v-0.1c-1.8-0.8-4.2-2.8-4.2-6.9c0-2.9,2.6-6.5,7.7-6.5c3.4,0,5.2,2.1,5.7,2.6
			c1.2-0.9,2.7-1.8,4.2-1.8s2.2,1,2.1,1.9c0,0.9-0.7,1.7-1.8,1.7c-0.8,0-1.2-0.4-1.6-0.7c-0.3-0.2-0.6-0.4-0.9-0.4
			c-0.3,0-0.9,0-1.4,0.3c0.4,0.9,0.7,1.9,0.7,3.4c0,1.8-0.5,3.5-1.7,4.9c-1.2,1.3-3.7,2.3-5.2,2.3c-1,0-1.6,0-2.3-0.2
			c-0.9,0.4-2.4,1.3-2.4,2.5c0,1.8,2.3,1.7,5.3,1.5c3.7-0.2,6,0.2,7.8,1.6c1.9,1.4,2.2,3.2,2.2,4.3c0,2.1-0.8,3.9-3,5.5
			c-1.2,0.9-3.9,2.1-7.7,2.1C-61.5,574.8-64.1,574.6-66.2,573.3"/>
		<path id="path62" inkscape:connector-curvature="0" d="M-44.7,535.6c0-1.1,0.9-2.3,2.7-2.3c1.6,0,2.3,1.2,2.3,2.2
			c0,1.2-0.8,2.5-2.6,2.5C-43.2,538-44.7,537.1-44.7,535.6z M-42.7,549.4c0-1.5-0.3-2.3-2.5-2.7c-0.3,0-0.4-0.1-0.4-0.3V546
			c0-0.1,0.1-0.2,0.3-0.3c1.4-0.5,3.2-1.3,4.9-2.2c0.4-0.2,0.6-0.3,0.9-0.3c0.2,0,0.3,0.2,0.2,0.5c-0.1,0.8-0.1,3.6-0.1,7.4v4.9
			c0,1.8,0,3.4,0,3.9c0.1,0.9,0.2,1.2,0.7,1.2h2.1c0.4,0,0.4,0.1,0.4,0.4v0.8c0,0.3-0.1,0.5-0.4,0.5c-0.4,0-2.4-0.1-4.3-0.1
			c-2.6,0-4.4,0.1-4.9,0.1c-0.2,0-0.4-0.1-0.4-0.4v-0.9c0-0.3,0.1-0.4,0.5-0.4h2.2c0.5,0,0.7-0.2,0.7-0.9c0-1.4,0-2.7,0-4.1
			L-42.7,549.4"/>
		<path id="path64" inkscape:connector-curvature="0" d="M-15.1,560.1c0,0.7,0.4,0.9,1,0.9h1.4c0.4,0,0.5,0.1,0.5,0.4v0.7
			c0,0.3-0.1,0.5-0.4,0.5c-0.3,0-1.7-0.1-4.3-0.1c-2.3,0-3.7,0.1-4.1,0.1c-0.3,0-0.4-0.1-0.4-0.5v-0.7c0-0.3,0.1-0.4,0.6-0.4h1.3
			c0.5,0,0.9-0.2,0.9-1c0-1.2,0.1-2.6,0.1-3.8v-6c0-1.8,0-3.1-1.3-4.1c-1.1-0.8-2.2-0.8-3.3-0.8c-0.7,0-2.3,0.3-3.7,1.8
			c-0.9,1-1,2.2-1,3.1v9.3c0,1.2,0.1,1.5,1.1,1.5h1.1c0.4,0,0.4,0.1,0.4,0.5v0.8c0,0.3-0.1,0.4-0.3,0.4c-0.3,0-1.5-0.1-3.9-0.1
			c-2.3,0-3.7,0.1-4,0.1c-0.2,0-0.3-0.1-0.3-0.4v-0.8c0-0.3,0.1-0.4,0.4-0.4h1.3c0.6,0,0.9-0.1,0.9-0.9v-10.6c0-1.4-0.7-2.1-1.9-2.7
			l-0.4-0.2c-0.3-0.1-0.4-0.3-0.4-0.4v-0.2c0-0.2,0.2-0.4,0.4-0.4l3.9-2.2c0.4-0.2,0.6-0.3,0.8-0.3c0.2,0,0.3,0.2,0.4,0.5l0.3,2.8
			h0.1c1.3-1.6,3.9-3.3,6.2-3.3c1.3,0,2.7,0.3,3.8,1c1.4,0.9,2.5,3.2,2.5,4.3L-15.1,560.1"/>
		<path id="path66" inkscape:connector-curvature="0" d="M1.1,549.2c0.9,0,1.2-0.2,1.2-0.6c0-1-0.5-4-3.5-4c-2,0-3.9,1.3-4.7,4.6
			H1.1z M-6.1,550.5c-0.1,0.4-0.1,1.1-0.1,2.2c0,4.4,2.8,7.8,6.4,7.8c2.7,0,4.7-1.6,5.5-3.1c0.1-0.2,0.3-0.3,0.4-0.2l0.6,0.3
			c0.1,0,0.2,0.2,0,0.7c-0.8,1.8-3.2,4.9-7.2,4.9c-2.6,0-5.4-0.8-7.1-3.2c-1.6-2.3-2-4-2-7.1c0-1.8,0.4-4.8,2.8-7.2
			c1.9-2,4.2-2.4,6.4-2.4c5.2,0,6.6,4.9,6.6,6.6c0,0.6-0.5,0.7-1.3,0.7H-6.1"/>
		<path id="path68" inkscape:connector-curvature="0" d="M20.3,549.2c0.9,0,1.2-0.2,1.2-0.6c0-1-0.5-4-3.5-4c-2,0-3.9,1.3-4.7,4.6
			H20.3z M13.1,550.5c-0.1,0.4-0.1,1.1-0.1,2.2c0,4.4,2.8,7.8,6.4,7.8c2.7,0,4.7-1.6,5.5-3.1c0.1-0.2,0.3-0.3,0.4-0.2l0.6,0.3
			c0.1,0,0.2,0.2,0,0.7c-0.8,1.8-3.2,4.9-7.2,4.9c-2.6,0-5.4-0.8-7.1-3.2c-1.6-2.3-2-4-2-7.1c0-1.8,0.5-4.8,2.8-7.2
			c1.9-2,4.2-2.4,6.4-2.4c5.2,0,6.6,4.9,6.6,6.6c0,0.6-0.5,0.7-1.3,0.7H13.1"/>
		<path id="path70" inkscape:connector-curvature="0" d="M31.5,550.5c0-2.3-0.4-2.7-1.6-3.4l-0.9-0.4c-0.3-0.1-0.4-0.1-0.4-0.3v-0.3
			c0-0.2,0.1-0.3,0.4-0.4l4.5-2.3c0.3-0.1,0.4-0.2,0.6-0.2c0.3,0,0.3,0.3,0.3,0.5l0.2,3.1h0.2c1.4-2.1,3.5-3.9,5.4-3.9
			c1.5,0,2.3,0.9,2.3,2c0,1.3-1.1,2.2-1.9,2.2c-0.5,0-0.9-0.2-1.3-0.4c-0.4-0.2-0.9-0.4-1.5-0.4c-0.7,0-1.9,0.5-2.7,1.9
			c-0.3,0.5-0.5,1.3-0.5,1.4v9.5c0,1.4,0.3,1.8,1.3,1.8h2.1c0.3,0,0.3,0.1,0.3,0.4v0.8c0,0.3,0,0.4-0.2,0.4c-0.3,0-2.3-0.1-4.8-0.1
			c-2.8,0-4.7,0.1-5,0.1c-0.2,0-0.3-0.1-0.3-0.5v-0.8c0-0.3,0.1-0.4,0.5-0.4h1.8c0.7,0,1-0.3,1-0.9c0-1.5,0-3.1,0-5.4L31.5,550.5"/>
		<path id="path72" inkscape:connector-curvature="0" d="M45.6,535.6c0-1.1,1-2.3,2.8-2.3c1.6,0,2.3,1.2,2.3,2.2
			c0,1.2-0.8,2.5-2.6,2.5C47.1,538,45.6,537.1,45.6,535.6L45.6,535.6z M47.6,549.4c0-1.5-0.3-2.3-2.5-2.7c-0.3,0-0.4-0.1-0.4-0.3
			V546c0-0.1,0.1-0.2,0.3-0.3c1.4-0.5,3.2-1.3,4.9-2.2c0.4-0.2,0.6-0.3,0.9-0.3c0.2,0,0.3,0.2,0.2,0.5c-0.1,0.8-0.1,3.6-0.1,7.4v4.9
			c0,1.8,0,3.4,0,3.9c0.1,0.9,0.2,1.2,0.7,1.2h2.1c0.4,0,0.5,0.1,0.5,0.4v0.8c0,0.3-0.1,0.5-0.4,0.5c-0.4,0-2.4-0.1-4.3-0.1
			c-2.6,0-4.4,0.1-4.9,0.1c-0.2,0-0.4-0.1-0.4-0.4v-0.9c0-0.3,0.1-0.4,0.5-0.4h2.2c0.5,0,0.7-0.2,0.7-0.9c0-1.4,0-2.7,0-4.1
			L47.6,549.4"/>
		<path id="path74" inkscape:connector-curvature="0" d="M75.2,560.1c0,0.7,0.4,0.9,1,0.9h1.4c0.4,0,0.5,0.1,0.5,0.4v0.7
			c0,0.3-0.1,0.5-0.4,0.5c-0.3,0-1.7-0.1-4.3-0.1c-2.3,0-3.7,0.1-4.1,0.1c-0.3,0-0.4-0.1-0.4-0.5v-0.7c0-0.3,0.1-0.4,0.6-0.4H71
			c0.5,0,0.9-0.2,0.9-1c0-1.2,0.1-2.6,0.1-3.8v-6c0-1.8,0-3.1-1.3-4.1c-1.1-0.8-2.2-0.8-3.3-0.8c-0.7,0-2.3,0.3-3.7,1.8
			c-0.9,1-1,2.2-1,3.1v9.3c0,1.2,0.1,1.5,1.1,1.5h1.1c0.4,0,0.5,0.1,0.5,0.5v0.8c0,0.3-0.1,0.4-0.3,0.4c-0.3,0-1.5-0.1-3.9-0.1
			c-2.3,0-3.7,0.1-4,0.1c-0.2,0-0.3-0.1-0.3-0.4v-0.8c0-0.3,0.1-0.4,0.5-0.4h1.3c0.6,0,0.9-0.1,0.9-0.9v-10.6c0-1.4-0.7-2.1-1.8-2.7
			l-0.4-0.2c-0.3-0.1-0.4-0.3-0.4-0.4v-0.2c0-0.2,0.2-0.4,0.4-0.4l3.9-2.2c0.4-0.2,0.6-0.3,0.8-0.3c0.2,0,0.3,0.2,0.4,0.5l0.3,2.8
			h0.1c1.3-1.6,3.9-3.3,6.2-3.3c1.4,0,2.7,0.3,3.8,1c1.4,0.9,2.5,3.2,2.5,4.3L75.2,560.1"/>
		<path id="path76" inkscape:connector-curvature="0" d="M92.6,549.5c0-2-0.4-3.2-1.2-4.1c-0.6-0.6-1.5-1-2.2-1
			c-1,0-2.1,0.2-3.2,1.3c-1.4,1.5-1.6,3.6-1.6,5.3c0,1.5,0.5,2.9,1.4,3.9c0.8,0.8,1.6,1.1,2.7,1.1C91.7,556.1,92.6,552.3,92.6,549.5
			L92.6,549.5z M96.8,568.7c0-2.7-2-4.7-6.5-4.4l-4.3,0.3c-1.4,0.4-3.6,1.9-3.6,4.3c0,1.1,0.9,2.5,1.8,3.1c1.5,1,3.1,1.3,6.3,1.3
			C92.1,573.3,97.1,572.2,96.8,568.7z M82,573.3c-1.6-1-2.3-2.2-2.3-3.7c0-2.5,2.6-4.5,4.7-5.4v-0.2c-1.9-0.4-3-1.8-3-3.2
			c0-2.2,2.5-3.7,4.1-4.3v-0.1c-1.8-0.8-4.2-2.8-4.2-6.9c0-2.9,2.6-6.5,7.7-6.5c3.4,0,5.2,2.1,5.7,2.6c1.2-0.9,2.7-1.8,4.2-1.8
			c1.5,0,2.2,1,2.1,1.9c0,0.9-0.7,1.7-1.8,1.7c-0.8,0-1.2-0.4-1.6-0.7c-0.3-0.2-0.6-0.4-0.9-0.4c-0.3,0-0.9,0-1.4,0.3
			c0.4,0.9,0.7,1.9,0.7,3.4c0,1.8-0.5,3.5-1.7,4.9c-1.2,1.3-3.7,2.3-5.2,2.3c-1,0-1.6,0-2.3-0.2c-0.9,0.4-2.4,1.3-2.4,2.5
			c0,1.8,2.3,1.7,5.3,1.5c3.7-0.2,6,0.2,7.8,1.6c1.9,1.4,2.2,3.2,2.2,4.3c0,2.1-0.8,3.9-3,5.5c-1.2,0.9-3.9,2.1-7.7,2.1
			C86.7,574.8,84.1,574.6,82,573.3"/>
	</g>
</g>
</svg>
