<?xml version="1.0" encoding="UTF-8" standalone="no"?>
<!-- Generator: Adobe Illustrator 17.0.0, SVG Export Plug-In . SVG Version: 6.00 Build 0)  -->

<svg
   xmlns:dc="http://purl.org/dc/elements/1.1/"
   xmlns:cc="http://creativecommons.org/ns#"
   xmlns:rdf="http://www.w3.org/1999/02/22-rdf-syntax-ns#"
   xmlns:svg="http://www.w3.org/2000/svg"
   xmlns="http://www.w3.org/2000/svg"
   xmlns:sodipodi="http://sodipodi.sourceforge.net/DTD/sodipodi-0.dtd"
   xmlns:inkscape="http://www.inkscape.org/namespaces/inkscape"
   version="1.1"
   id="Layer_1"
   x="0px"
   y="0px"
   width="480px"
   height="100px"
   viewBox="0 0 480 100"
   enable-background="new 0 0 480 100"
   xml:space="preserve"
   inkscape:version="0.48.4 r9939"
   sodipodi:docname="logo-01.svg"><metadata
   id="metadata37"><rdf:RDF><cc:Work
       rdf:about=""><dc:format>image/svg+xml</dc:format><dc:type
         rdf:resource="http://purl.org/dc/dcmitype/StillImage" /><dc:title></dc:title></cc:Work></rdf:RDF></metadata><defs
   id="defs35" /><sodipodi:namedview
   pagecolor="#ffffff"
   bordercolor="#666666"
   borderopacity="1"
   objecttolerance="10"
   gridtolerance="10"
   guidetolerance="10"
   inkscape:pageopacity="0"
   inkscape:pageshadow="2"
   inkscape:window-width="640"
   inkscape:window-height="480"
   id="namedview33"
   showgrid="false"
   inkscape:zoom="0.71666667"
   inkscape:cx="240"
   inkscape:cy="50"
   inkscape:window-x="1081"
   inkscape:window-y="230"
   inkscape:window-maximized="0"
   inkscape:current-layer="Layer_1" />
<g
   id="g3">
	<path
   fill="#ECF0F1"
   d="M25.121,46.532l-2.644,2.909c-2.205-1.498-5.245-2.248-9.123-2.248c-2.558,0-4.495,0.595-5.817,1.785   c-1.322,1.19-1.983,2.578-1.983,4.165c0,1.675,0.572,2.975,1.719,3.899c1.145,0.926,2.599,1.478,4.363,1.653l5.553,0.396   c2.909,0.265,5.289,1.345,7.139,3.239c1.851,1.896,2.776,4.21,2.776,6.94c0,2.733-1.146,5.113-3.438,7.14   c-2.293,2.028-5.156,3.04-8.593,3.04c-5.817,0-10.269-1.673-13.353-5.023l3.041-2.645c2.909,2.469,6.346,3.702,10.313,3.702   c1.762,0,3.547-0.572,5.354-1.719c1.805-1.145,2.71-2.645,2.71-4.495c0-1.762-0.551-3.173-1.652-4.23   c-1.103-1.058-2.491-1.673-4.165-1.851l-5.553-0.397c-2.909-0.175-5.334-1.167-7.271-2.975c-1.94-1.805-2.909-4.032-2.909-6.676   c0-2.467,1.058-4.737,3.173-6.809c2.116-2.07,4.979-3.107,8.594-3.107C18.378,43.227,22.299,44.33,25.121,46.532z"
   id="path5" />
	<path
   fill="#ECF0F1"
   d="M54.122,74.957v3.966H50.42c-3.262,0-6.038-1.124-8.329-3.371c-2.293-2.248-3.438-4.958-3.438-8.131V47.722   h-6.61v-3.966h6.61V33.179h3.966v10.577h11.634v3.966H42.62v19.699c0,2.115,0.748,3.9,2.248,5.354   c1.498,1.454,3.349,2.182,5.553,2.182H54.122z"
   id="path7" />
	<path
   fill="#ECF0F1"
   d="M92.113,74.163c-3.879,3.88-8.507,5.817-13.882,5.817c-5.202,0-9.674-1.739-13.419-5.223   c-3.748-3.48-5.619-7.909-5.619-13.286c0-5.2,1.673-9.585,5.024-13.155c3.349-3.57,7.536-5.354,12.56-5.354   c5.199,0,9.32,1.632,12.361,4.892c3.041,3.261,4.561,7.8,4.561,13.618v1.058H63.16l0.132,1.189   c0.616,3.615,2.334,6.567,5.156,8.858c2.82,2.293,6.082,3.438,9.783,3.438c4.582,0,8.284-1.541,11.105-4.628L92.113,74.163z    M88.94,57.638c-0.178-2.909-1.434-5.421-3.768-7.536c-2.336-2.115-5.135-3.173-8.395-3.173c-3.262,0-6.061,0.971-8.396,2.908   c-2.336,1.94-3.9,4.452-4.693,7.536l-0.264,1.189h25.648L88.94,57.638z"
   id="path9" />
	<path
   fill="#ECF0F1"
   d="M99.3,98.489V43.755h3.966v4.892l1.719-1.454c3.438-2.995,7.404-4.495,11.899-4.495   c5.11,0,9.43,1.808,12.956,5.42c3.524,3.615,5.289,8.021,5.289,13.221c0,5.202-1.764,9.608-5.289,13.221   c-3.526,3.615-7.846,5.421-12.956,5.421c-4.495,0-8.461-1.498-11.899-4.495l-1.719-1.454v24.458H99.3z M103.399,66.23   c1.058,2.822,2.797,5.156,5.222,7.008c2.423,1.851,5.177,2.776,8.263,2.776c3.966,0,7.337-1.455,10.114-4.363   s4.165-6.346,4.165-10.313c0-3.966-1.388-7.403-4.165-10.312c-2.776-2.909-6.148-4.363-10.114-4.363   c-3.086,0-5.84,0.925-8.263,2.776c-2.425,1.851-4.165,4.188-5.222,7.007l-0.132,0.133v9.519L103.399,66.23z"
   id="path11" />
	<path
   fill="#ECF0F1"
   d="M140.729,26.833h3.966v23.004l1.719-1.586c3.524-3.349,7.49-5.024,11.899-5.024   c4.935,0,8.878,1.719,11.833,5.156c2.952,3.438,4.429,7.8,4.429,13.089v17.451h-3.966V61.472c0-4.054-1.08-7.447-3.239-10.181   c-2.161-2.73-5.179-4.098-9.056-4.098c-3.615,0-6.677,1.19-9.188,3.57c-2.512,2.38-3.989,5.334-4.429,8.857v19.303h-3.966V26.833z"
   id="path13" />
	<path
   fill="#ECF0F1"
   d="M213.094,74.163c-3.879,3.88-8.507,5.817-13.882,5.817c-5.202,0-9.674-1.739-13.419-5.223   c-3.748-3.48-5.619-7.909-5.619-13.286c0-5.2,1.673-9.585,5.024-13.155c3.349-3.57,7.536-5.354,12.56-5.354   c5.199,0,9.32,1.632,12.361,4.892c3.041,3.261,4.561,7.8,4.561,13.618v1.058h-30.54l0.132,1.189   c0.616,3.615,2.334,6.567,5.156,8.858c2.82,2.293,6.082,3.438,9.783,3.438c4.582,0,8.284-1.541,11.105-4.628L213.094,74.163z    M209.921,57.638c-0.178-2.909-1.434-5.421-3.768-7.536c-2.336-2.115-5.135-3.173-8.395-3.173c-3.262,0-6.061,0.971-8.396,2.908   c-2.336,1.94-3.9,4.452-4.693,7.536l-0.264,1.189h25.648L209.921,57.638z"
   id="path15" />
	<path
   fill="#ECF0F1"
   d="M220.281,43.755h3.966v6.479l1.719-1.587c3.613-3.437,7.579-5.156,11.899-5.156   c4.935,0,8.878,1.741,11.832,5.222c2.952,3.483,4.43,7.867,4.43,13.155v17.055h-3.967V61.868c0-4.053-1.08-7.47-3.239-10.246   c-2.16-2.776-5.179-4.165-9.056-4.165c-3.615,0-6.677,1.212-9.188,3.636c-2.512,2.425-3.989,5.399-4.429,8.923v18.906h-3.966   V43.755z"
   id="path17" />
	<path
   fill="#ECF0F1"
   d="M290.399,75.221c-3.438,3.173-7.536,4.76-12.296,4.76c-5.112,0-9.453-1.806-13.022-5.421   c-3.569-3.612-5.354-7.976-5.354-13.088c0-5.111,1.785-9.474,5.354-13.089c3.569-3.613,7.91-5.42,13.022-5.42   c4.76,0,8.858,1.586,12.296,4.759l-2.776,2.776c-2.645-2.38-5.817-3.569-9.52-3.569c-3.966,0-7.36,1.434-10.18,4.296   c-2.822,2.866-4.23,6.28-4.23,10.247c0,3.966,1.408,7.383,4.23,10.246c2.819,2.865,6.214,4.297,10.18,4.297   c3.702,0,6.875-1.19,9.52-3.57L290.399,75.221z"
   id="path19" />
	<path
   fill="#ECF0F1"
   d="M297.585,77.865c-0.706-0.704-1.058-1.541-1.058-2.512c0-0.969,0.352-1.828,1.058-2.578   c0.705-0.748,1.541-1.124,2.513-1.124c0.969,0,1.828,0.376,2.577,1.124c0.748,0.75,1.124,1.609,1.124,2.578   c0,0.971-0.376,1.808-1.124,2.512c-0.749,0.706-1.608,1.058-2.577,1.058C299.126,78.923,298.29,78.571,297.585,77.865z"
   id="path21" />
	<path
   fill="#ECF0F1"
   d="M310.325,43.755h3.967v6.479l1.718-1.719c3.349-3.349,7.095-5.024,11.238-5.024   c5.992,0,10.355,2.557,13.089,7.668l0.793,1.322l0.926-1.322c3.523-5.111,8.151-7.668,13.882-7.668   c4.846,0,8.659,1.719,11.436,5.156c2.776,3.438,4.164,7.846,4.164,13.221v17.055h-3.966V61.868c0-4.142-0.971-7.579-2.908-10.313   c-1.94-2.731-4.849-4.098-8.726-4.098c-3.967,0-7.14,1.434-9.52,4.296c-2.38,2.865-3.569,6.325-3.569,10.379v16.79h-3.967V61.868   c0-4.142-0.971-7.579-2.908-10.313c-1.939-2.731-4.849-4.098-8.726-4.098c-3.615,0-6.567,1.189-8.858,3.57   c-2.293,2.379-3.658,5.333-4.098,8.857v0.132v18.906h-3.967V43.755z"
   id="path23" />
	<path
   fill="#ECF0F1"
   d="M410.058,74.163c-3.88,3.88-8.507,5.817-13.882,5.817c-5.201,0-9.674-1.739-13.419-5.223   c-3.747-3.48-5.619-7.909-5.619-13.286c0-5.2,1.674-9.585,5.024-13.155c3.349-3.57,7.535-5.354,12.56-5.354   c5.199,0,9.32,1.632,12.361,4.892c3.041,3.261,4.562,7.8,4.562,13.618v1.058h-30.54l0.132,1.189   c0.615,3.615,2.334,6.567,5.156,8.858c2.819,2.293,6.081,3.438,9.783,3.438c4.582,0,8.284-1.541,11.105-4.628L410.058,74.163z    M406.885,57.638c-0.178-2.909-1.434-5.421-3.768-7.536c-2.337-2.115-5.136-3.173-8.396-3.173c-3.262,0-6.062,0.971-8.396,2.908   c-2.336,1.94-3.9,4.452-4.693,7.536l-0.265,1.189h25.648L406.885,57.638z"
   id="path25" />
</g>
<g
   id="g3044_2_"
   transform="matrix(0.8672733,0,0,0.8613067,320.48406,857.53171)">
	
		<path
   id="path3028_2_"
   transform-center-x="2.9986448"
   transform-center-y="0.567943"
   connector-curvature="0"
   nodetypes="cccc"
   fill="#FDD040"
   d="   M128.621-992.641l2.34,6.049l-21.877-9.026L128.621-992.641z" />
	
		<path
   id="path3031_2_"
   transform-center-x="-1.2375158"
   transform-center-y="-10.192843"
   connector-curvature="0"
   nodetypes="cccc"
   fill="#FDD040"
   d="   M149.921-939.717l-5.953,30.157l-12.571-81.704L149.921-939.717z" />
	
		<path
   id="path3033_2_"
   rx="165.66502"
   ry="82.832512"
   cy="-123.45538"
   type="arc"
   cx="96.974648"
   fill="#FDD040"
   d="   M183.841-945.679c-0.863,3.285-7.919,3.806-15.76,1.162c-7.841-2.643-13.497-7.449-12.634-10.734   c0.863-3.285,7.919-3.806,15.76-1.162C179.048-953.77,184.704-948.964,183.841-945.679z" />
	
		<path
   id="path3035_2_"
   rx="134"
   ry="134"
   cy="538"
   type="arc"
   cx="754"
   fill="#FDD040"
   d="   M170.364-926.136c0,4.643-3.764,8.406-8.406,8.406c-4.643,0-8.406-3.763-8.406-8.406s3.764-8.406,8.406-8.406   C166.601-934.542,170.364-930.779,170.364-926.136z" />
	
		<path
   id="path3037_2_"
   rx="134"
   ry="134"
   cy="538"
   type="arc"
   cx="754"
   fill="#FDD040"
   d="   M165.091-908.2c0,3.748-3.038,6.786-6.786,6.786c-3.748,0-6.786-3.038-6.786-6.786s3.038-6.786,6.786-6.786   C162.053-914.985,165.091-911.947,165.091-908.2z" />
</g>
</svg>