<?xml version="1.0" encoding="utf-8"?>
<!-- Generator: Adobe Illustrator 18.1.0, SVG Export Plug-In . SVG Version: 6.00 Build 0)  -->
<!DOCTYPE svg PUBLIC "-//W3C//DTD SVG 1.1//EN" "http://www.w3.org/Graphics/SVG/1.1/DTD/svg11.dtd">
<svg version="1.1" id="Layer_1" xmlns="http://www.w3.org/2000/svg" xmlns:xlink="http://www.w3.org/1999/xlink" x="0px" y="0px"
	 viewBox="0 0 112.1 75" enable-background="new 0 0 112.1 75" xml:space="preserve">
<g>
	<g>
		<path d="M0.8,72.6c0.2,0.9,0.6,1.5,1.5,1.5c0.7,0,1.3-0.4,1.3-1.2c0-0.9-0.7-1.1-1.4-1.4c-1-0.4-2-0.7-2-2c0-1.2,1-1.9,2.1-1.9
			c1.2,0,1.9,0.7,2.2,1.8l-0.9,0.3c-0.2-0.7-0.5-1.2-1.3-1.2c-0.6,0-1.2,0.3-1.2,0.9c0,0.7,0.4,0.9,0.9,1.1l1.5,0.7
			c0.6,0.4,1,0.9,1,1.7c0,1.3-0.9,2.1-2.2,2.1C1,75,0.2,74.2,0,72.9L0.8,72.6z"/>
		<path d="M11.6,68.6h-2v-0.8h4.8v0.8h-1.9v6.3h-0.9V68.6z"/>
		<path d="M19.9,67.8h4.4v0.8h-3.5v2.1h2.9v0.8h-2.9v2.5h3.5v0.8h-4.4V67.8z"/>
		<path d="M30.6,74.9h-0.9v-7.1h2.2c1.6,0,2.3,0.9,2.3,1.9c0,1.5-1.1,2.1-2,2.1h-1.5V74.9z M31.9,71c0.9,0,1.4-0.4,1.4-1.2
			c0-1-0.6-1.2-1.4-1.2h-1.2V71H31.9z"/>
		<path d="M39.1,67.8H40v2.9h2.8v-2.9h0.9v7.1h-0.9v-3.3H40v3.3h-0.9V67.8z"/>
		<path d="M49.2,67.8h4.4v0.8h-3.5v2.1H53v0.8h-2.9v2.5h3.5v0.8h-4.4V67.8z"/>
		<path d="M58.6,67.8h1.1l2.7,6l0,0l-0.1-1.8v-4.1h0.9v7.1h-1.1l-2.7-6l0,0l0.1,1.8v4.1h-0.9V67.8z"/>
		<path d="M83,73.5c-0.6,0.9-1.2,1.5-2.3,1.5c-2.1,0-2.7-1.9-2.7-3.6c0-2.8,1.5-3.7,2.6-3.7c1.1,0,1.7,0.6,2.2,1.5L82,69.6
			c-0.3-0.6-0.7-1.1-1.4-1.1c-1.4,0-1.7,1.7-1.7,2.8c0,1.1,0.3,2.8,1.7,2.8c0.8,0,1.2-0.5,1.7-1.1L83,73.5z"/>
		<path d="M87.9,67.8h0.9v2.9h2.8v-2.9h0.9v7.1h-0.9v-3.3h-2.8v3.3h-0.9V67.8z"/>
		<path d="M98.1,67.8h4.4v0.8H99v2.1h2.9v0.8H99v2.5h3.5v0.8h-4.4V67.8z"/>
		<path d="M107.4,67.8h1.1l2.7,6l0,0l-0.1-1.8v-4.1h0.9v7.1H111l-2.7-6l0,0l0.1,1.8v4.1h-0.9V67.8z"/>
	</g>
	<g>
		<g>
			<rect x="0" y="0" width="53.3" height="5.9"/>
			<rect x="11.6" y="12.4" width="41.7" height="5.9"/>
			<rect x="0" y="24.9" width="53.3" height="5.9"/>
			<rect x="0" y="37.3" width="41.4" height="5.9"/>
			<rect x="0" y="49.7" width="53.3" height="5.9"/>
			<rect x="47.3" y="0" width="5.9" height="18.3"/>
			<rect x="0" y="37.3" width="5.9" height="18.3"/>
			<rect x="0" y="0" width="5.9" height="30.8"/>
			<rect x="47.3" y="24.9" width="5.9" height="30.8"/>
		</g>
		<g>
			<rect x="58.9" y="0" width="53.3" height="5.9"/>
			<rect x="58.9" y="0" width="5.9" height="55.6"/>
			<rect x="70.5" y="12.4" width="41.7" height="5.9"/>
			<rect x="106.2" y="0" width="5.9" height="18.3"/>
			<rect x="70.5" y="37.3" width="41.7" height="5.9"/>
			<rect x="106.2" y="37.3" width="5.9" height="18.3"/>
			<rect x="58.9" y="49.7" width="53.3" height="5.9"/>
			<rect x="70.5" y="24.9" width="5.9" height="18.3"/>
		</g>
	</g>
</g>
</svg>
